<svg width="24" height="24" viewBox="0 0 24 24" fill="none" xmlns="http://www.w3.org/2000/svg">
<path d="M23.1426 8.57145C23.1426 8.11679 22.962 7.68075 22.6405 7.35926C22.3191 7.03777 21.883 6.85716 21.4284 6.85716H17.9998L15.4284 3.42859H8.57122L5.99979 6.85716H2.57122C2.11656 6.85716 1.68053 7.03777 1.35904 7.35926C1.03755 7.68075 0.856934 8.11679 0.856934 8.57145V18.8572C0.856934 19.3118 1.03755 19.7479 1.35904 20.0693C1.68053 20.3908 2.11656 20.5714 2.57122 20.5714H21.4284C21.883 20.5714 22.3191 20.3908 22.6405 20.0693C22.962 19.7479 23.1426 19.3118 23.1426 18.8572V8.57145Z" stroke="#B0B0B0" stroke-width="1.5" stroke-linecap="round" stroke-linejoin="round"/>
<path d="M11.9997 16.7143C14.13 16.7143 15.8569 14.9874 15.8569 12.8571C15.8569 10.7269 14.13 9 11.9997 9C9.86948 9 8.14258 10.7269 8.14258 12.8571C8.14258 14.9874 9.86948 16.7143 11.9997 16.7143Z" stroke="#B0B0B0" stroke-width="1.5" stroke-linecap="round" stroke-linejoin="round"/>
</svg>
