<svg width="20" height="20" viewBox="0 0 20 20" fill="none" xmlns="http://www.w3.org/2000/svg">
  <g clip-path="url(#clip0_4348_1165)">
    <path
      d="M10.7144 12.8571L6.42871 13.6286L7.143 9.28571L15.3287 1.12856C15.4615 0.994665 15.6195 0.888387 15.7936 0.815861C15.9677 0.743334 16.1544 0.705994 16.343 0.705994C16.5316 0.705994 16.7183 0.743334 16.8924 0.815861C17.0665 0.888387 17.2245 0.994665 17.3573 1.12856L18.8716 2.64285C19.0055 2.77565 19.1117 2.93365 19.1843 3.10774C19.2568 3.28182 19.2941 3.46855 19.2941 3.65713C19.2941 3.84572 19.2568 4.03244 19.1843 4.20653C19.1117 4.38061 19.0055 4.53862 18.8716 4.67142L10.7144 12.8571Z"
      stroke="#1B1B1B" stroke-width="1.5" stroke-linecap="round" stroke-linejoin="round"/>
    <path
      d="M17.1429 13.5714V17.8571C17.1429 18.236 16.9924 18.5994 16.7245 18.8673C16.4566 19.1352 16.0932 19.2857 15.7144 19.2857H2.14293C1.76405 19.2857 1.40068 19.1352 1.13277 18.8673C0.864865 18.5994 0.714355 18.236 0.714355 17.8571V4.28569C0.714355 3.90681 0.864865 3.54344 1.13277 3.27554C1.40068 3.00763 1.76405 2.85712 2.14293 2.85712H6.42864"
      stroke="#1B1B1B" stroke-width="1.5" stroke-linecap="round" stroke-linejoin="round"/>
  </g>
  <defs>
    <clipPath id="clip0_4348_1165">
      <rect width="20" height="20" fill="white"/>
    </clipPath>
  </defs>
</svg>
