<svg width="24" height="24" viewBox="0 0 24 24" fill="none" xmlns="http://www.w3.org/2000/svg">
<path d="M20.5714 14.5714C21.9916 14.5714 23.1429 13.4202 23.1429 12C23.1429 10.5799 21.9916 9.42859 20.5714 9.42859C19.1513 9.42859 18 10.5799 18 12C18 13.4202 19.1513 14.5714 20.5714 14.5714Z" stroke="#4F4F4F" stroke-width="1.5" stroke-linecap="round" stroke-linejoin="round"/>
<path d="M12.0001 14.5714C13.4203 14.5714 14.5716 13.4202 14.5716 12C14.5716 10.5799 13.4203 9.42859 12.0001 9.42859C10.58 9.42859 9.42871 10.5799 9.42871 12C9.42871 13.4202 10.58 14.5714 12.0001 14.5714Z" stroke="#4F4F4F" stroke-width="1.5" stroke-linecap="round" stroke-linejoin="round"/>
<path d="M3.42885 14.5714C4.84901 14.5714 6.00028 13.4202 6.00028 12C6.00028 10.5799 4.84901 9.42859 3.42885 9.42859C2.00869 9.42859 0.857422 10.5799 0.857422 12C0.857422 13.4202 2.00869 14.5714 3.42885 14.5714Z" stroke="#4F4F4F" stroke-width="1.5" stroke-linecap="round" stroke-linejoin="round"/>
</svg>
