<svg width="20" height="20" viewBox="0 0 20 20" fill="none" xmlns="http://www.w3.org/2000/svg">
<g clip-path="url(#clip0_3792_3106)">
<path d="M0.714287 5.5L9.5 14.2857C9.56413 14.354 9.64158 14.4085 9.72758 14.4457C9.81358 14.483 9.90629 14.5022 10 14.5022C10.0937 14.5022 10.1864 14.483 10.2724 14.4457C10.3584 14.4085 10.4359 14.354 10.5 14.2857L19.2857 5.5" fill="#F6F6F6"/>
<path d="M0.714287 5.5L9.5 14.2857C9.56413 14.354 9.64158 14.4085 9.72758 14.4457C9.81358 14.483 9.90629 14.5022 10 14.5022C10.0937 14.5022 10.1864 14.483 10.2724 14.4457C10.3584 14.4085 10.4359 14.354 10.5 14.2857L19.2857 5.5" stroke="#6D6D6D" stroke-width="1.5" stroke-linecap="round" stroke-linejoin="round"/>
</g>
<defs>
<clipPath id="clip0_3792_3106">
<rect width="20" height="20" fill="white"/>
</clipPath>
</defs>
</svg>
