<svg width="680" height="454" viewBox="0 0 680 454" fill="none" xmlns="http://www.w3.org/2000/svg">
<g clip-path="url(#clip0_5536_6815)">
<path d="M674.14 65.0219H665.343C663.79 58.1715 661.151 51.7321 657.644 45.8521L664.121 39.3785C666.406 37.095 666.406 33.3844 664.121 31.0895L649.932 16.9091C647.648 14.6256 643.935 14.6256 641.639 16.9091L635.413 23.1316C629.621 19.5009 623.223 16.7264 616.414 15.0024V5.85711C616.414 2.62599 613.787 0 610.554 0H590.494C587.261 0 584.633 2.62599 584.633 5.85711V14.6599C577.779 16.2127 571.324 18.8501 565.452 22.3324L558.986 15.8701C556.701 13.5867 552.989 13.5867 550.692 15.8701L536.504 30.0505C534.219 32.334 534.219 36.0446 536.504 38.3395L542.741 44.5734C539.086 50.362 536.332 56.7443 534.607 63.549H525.445C522.212 63.549 519.585 66.175 519.585 69.4062V89.455C519.585 92.6861 522.212 95.3121 525.445 95.3121H534.276C535.807 102.163 538.446 108.602 541.942 114.47L535.464 120.944C533.179 123.228 533.179 126.938 535.464 129.233L549.653 143.413C551.938 145.697 555.65 145.697 557.947 143.413L564.173 137.191C569.965 140.822 576.351 143.596 583.159 145.332V154.465C583.159 157.697 585.787 160.323 589.02 160.323H609.08C612.313 160.323 614.941 157.697 614.941 154.465V145.663C621.795 144.11 628.25 141.495 634.099 137.99L640.576 144.464C642.861 146.747 646.574 146.747 648.87 144.464L663.058 130.284C665.343 128 665.343 124.289 663.058 121.995L656.821 115.761C660.477 109.972 663.253 103.59 664.978 96.785H674.105C677.338 96.785 679.966 94.159 679.966 90.9279V70.879C679.966 67.6479 677.338 65.0219 674.105 65.0219H674.14ZM599.781 117.473C579.172 117.473 562.459 100.781 562.459 80.1727C562.459 59.5644 580.555 41.5364 602.283 42.9521C620.87 44.1624 635.949 59.3132 637.058 77.8893C638.349 99.548 621.167 117.485 599.781 117.485V117.473Z" fill="#7BDA08"/>
<path d="M368.96 254.139H363.522C362.563 249.903 360.929 245.919 358.77 242.288L362.78 238.28C364.196 236.865 364.196 234.57 362.78 233.154L354.006 224.385C352.59 222.97 350.293 222.97 348.877 224.385L345.027 228.233C341.451 225.984 337.487 224.271 333.283 223.209V217.558C333.283 215.56 331.661 213.938 329.662 213.938H317.255C315.256 213.938 313.634 215.56 313.634 217.558V223.004C309.396 223.963 305.409 225.596 301.776 227.742L297.777 223.746C296.361 222.33 294.065 222.33 292.648 223.746L283.875 232.515C282.458 233.93 282.458 236.225 283.875 237.641L287.736 241.5C285.474 245.074 283.772 249.024 282.698 253.237H277.032C275.032 253.237 273.41 254.858 273.41 256.856V269.256C273.41 271.254 275.032 272.875 277.032 272.875H282.492C283.44 277.111 285.074 281.095 287.233 284.726L283.223 288.734C281.807 290.149 281.807 292.444 283.223 293.86L291.997 302.629C293.414 304.044 295.71 304.044 297.126 302.629L300.976 298.781C304.552 301.03 308.505 302.743 312.72 303.816V309.468C312.72 311.466 314.342 313.087 316.341 313.087H328.748C330.747 313.087 332.369 311.466 332.369 309.468V304.021C336.608 303.062 340.594 301.441 344.216 299.283L348.226 303.291C349.642 304.707 351.938 304.707 353.355 303.291L362.129 294.522C363.545 293.106 363.545 290.812 362.129 289.396L358.279 285.548C360.541 281.975 362.254 278.024 363.328 273.811H368.972C370.971 273.811 372.593 272.19 372.593 270.192V257.793C372.593 255.795 370.971 254.173 368.972 254.173L368.96 254.139ZM322.99 286.576C310.252 286.576 299.914 276.254 299.914 263.513C299.914 250.771 311.098 239.616 324.544 240.495C336.036 241.249 345.358 250.611 346.044 262.097C346.843 275.489 336.219 286.576 322.99 286.576Z" fill="#D9E3CB"/>
<path d="M289.187 95.5405V121.526H324.098V54.2896H282.161L235.117 121.526H271.994L289.187 95.5405Z" fill="#D9E3CB"/>
<path d="M289.186 151.28H252.298L260.272 139.223L221.522 140.97L212.771 153.472V183.762H286.547V212.294H324.098V183.762H342.102V151.28H324.098V136.357L289.186 137.933V151.28Z" fill="#5DAF01"/>
<path d="M410.132 174.891C389.603 169.331 391.51 149.75 397.577 126.47L361.614 118.443C350.887 162.081 358.358 197.246 400.947 208.778C445.032 220.72 469.456 191.857 481.863 146.108C481.931 145.845 481.988 145.594 482.057 145.32L446.037 137.282C439.423 161.464 431.312 180.611 410.143 174.879L410.132 174.891Z" fill="#5DAF01"/>
<path d="M434.362 85.5159C453.269 90.6309 453.063 107.951 448.334 128.262L483.885 137.887C493.196 96.3281 484.936 62.8182 443.547 51.6177C402.158 40.4173 378.099 65.1587 365.145 105.736L400.707 115.361C406.888 95.4376 415.467 80.3895 434.362 85.5045V85.5159Z" fill="#D9E3CB"/>
<path d="M615.911 123.262L581 124.826V151.28H544.112L561.031 125.728L522.795 127.44L504.585 153.472V183.762H578.372V212.294H615.911V183.762H633.916V151.28H615.911V123.262Z" fill="#5DAF01"/>
<path d="M581.001 95.5405V121.526H615.912V54.2896H573.975L526.942 121.526H563.807L581.001 95.5405Z" fill="#D9E3CB"/>
<path d="M326.977 244.868V252.232H338.88V258.649H326.977V266.458H340.377V273.274H318.466V238.075H340.377V244.845H326.977V244.868Z" fill="#32580F"/>
<path d="M378.225 273.297L370.605 260.007H368.663V273.297H360.141V238.097H374.683C377.471 238.097 379.836 238.577 381.755 239.536C383.674 240.495 385.125 241.819 386.084 243.498C387.044 245.176 387.524 247.094 387.524 249.252C387.524 251.809 386.816 253.979 385.41 255.771C383.994 257.564 381.949 258.797 379.264 259.459L387.638 273.297H378.225ZM368.663 254.184H373.941C375.632 254.184 376.877 253.807 377.676 253.065C378.476 252.323 378.876 251.216 378.876 249.754C378.876 248.293 378.465 247.265 377.654 246.466C376.842 245.667 375.609 245.267 373.941 245.267H368.663V254.173V254.184Z" fill="#32580F"/>
<path d="M424.846 273.297L417.226 260.007H415.284V273.297H406.762V238.097H421.304C424.092 238.097 426.457 238.577 428.376 239.536C430.295 240.495 431.746 241.819 432.706 243.498C433.665 245.176 434.145 247.094 434.145 249.252C434.145 251.809 433.437 253.979 432.032 255.771C430.615 257.564 428.57 258.797 425.885 259.459L434.259 273.297H424.846ZM415.284 254.184H420.562C422.253 254.184 423.498 253.807 424.298 253.065C425.097 252.323 425.497 251.216 425.497 249.754C425.497 248.293 425.086 247.265 424.275 246.466C423.464 245.667 422.23 245.267 420.562 245.267H415.284V254.173V254.184Z" fill="#32580F"/>
<path d="M479.167 239.867C481.874 241.408 484.01 243.555 485.564 246.284C487.129 249.024 487.906 252.118 487.906 255.566C487.906 259.014 487.118 262.119 485.541 264.871C483.965 267.623 481.817 269.769 479.121 271.322C476.413 272.863 473.42 273.64 470.13 273.64C466.84 273.64 463.847 272.863 461.14 271.322C458.432 269.781 456.296 267.634 454.719 264.871C453.143 262.119 452.354 259.014 452.354 255.566C452.354 252.118 453.143 249.024 454.719 246.284C456.296 243.543 458.443 241.408 461.14 239.867C463.836 238.326 466.84 237.549 470.13 237.549C473.42 237.549 476.459 238.326 479.167 239.867ZM463.481 248.179C461.836 249.983 461.014 252.449 461.014 255.566C461.014 258.683 461.836 261.115 463.481 262.93C465.126 264.757 467.343 265.67 470.13 265.67C472.918 265.67 475.088 264.757 476.756 262.93C478.413 261.103 479.247 258.649 479.247 255.566C479.247 252.483 478.424 250.028 476.779 248.202C475.134 246.375 472.918 245.462 470.13 245.462C467.343 245.462 465.126 246.364 463.481 248.179Z" fill="#32580F"/>
<path d="M525.719 273.297L518.099 260.007H516.157V273.297H507.635V238.097H522.177C524.965 238.097 527.33 238.577 529.249 239.536C531.168 240.495 532.619 241.819 533.579 243.498C534.538 245.176 535.018 247.094 535.018 249.252C535.018 251.809 534.31 253.979 532.905 255.771C531.488 257.564 529.443 258.797 526.759 259.459L535.132 273.297H525.719ZM516.157 254.184H521.435C523.126 254.184 524.371 253.807 525.171 253.065C525.97 252.323 526.37 251.216 526.37 249.754C526.37 248.293 525.959 247.265 525.148 246.466C524.337 245.667 523.103 245.267 521.435 245.267H516.157V254.173V254.184Z" fill="#32580F"/>
<path d="M79.1225 305.323C79.1225 305.323 85.2914 311.614 82.721 317.426C80.1621 323.237 79.9564 331.195 82.2983 334.426C84.6402 337.657 87.0736 339.998 86.411 344.028C85.7598 348.047 69.2179 355.423 56.9143 345.581C44.6107 335.739 54.0354 319.092 56.0346 313.144C58.0338 307.184 60.57 302.914 60.57 302.914L79.1225 305.335V305.323Z" fill="#5DAF01"/>
<path d="M83.6462 307.778C83.0179 309.924 82.6181 311.203 82.6181 311.203C82.6181 311.203 79.545 309.034 71.4454 307.332C64.077 305.814 57.9766 308.086 57.9766 308.086C57.9766 308.086 58.2736 306.442 58.7762 303.862C60.17 296.566 62.649 281.712 64.3511 276.026C64.751 274.702 64.1455 265.67 64.0998 255.007C64.0998 253.808 64.1227 252.586 64.1227 251.364C64.1684 246.546 64.374 241.523 64.8766 236.853C66.6245 220.321 77.9114 213.379 77.9114 213.379L87.9302 232.058C87.9302 232.058 88.0787 240.301 88.2843 250.508C88.3072 251.707 88.33 252.951 88.3643 254.207C88.49 260.75 88.6385 267.76 88.787 273.777C89.1411 286.507 85.4626 301.236 83.6462 307.778Z" fill="#E5ECDB"/>
<path d="M92.1914 255.555C91.0376 254.984 89.7467 254.527 88.3644 254.207C80.916 252.358 70.8058 253.682 64.1113 255.007C64.1113 253.808 64.1342 252.586 64.1342 251.365C70.8058 250.063 80.8474 248.716 88.2959 250.52C89.5182 250.794 90.6492 251.17 91.6888 251.639C91.8601 252.917 92.0429 254.23 92.1914 255.555Z" fill="#173102"/>
<path d="M82.6185 311.203C82.6185 311.203 79.5454 309.034 71.4458 307.332C64.0774 305.814 57.977 308.086 57.977 308.086C57.977 308.086 57.4515 305.517 58.731 303.862H58.7767C59.7706 303.656 72.7939 301.316 83.6352 307.778C83.6352 307.801 83.6581 307.801 83.6581 307.801C83.6581 307.801 84.4349 310.267 82.6071 311.192L82.6185 311.203Z" fill="#173102"/>
<path d="M120.044 416.494C120.044 416.494 120.204 443.85 118.958 444.877C117.725 445.905 59.4853 444.877 59.4853 444.877C59.4853 444.877 57.9888 434.077 64.3177 430.686C70.6465 427.295 83.9212 425.285 84.5381 424.052C85.155 422.819 85.155 416.026 85.155 416.026L103.993 408.49L120.032 416.494H120.044Z" fill="#5DAF01"/>
<path d="M59.4971 444.877C59.4971 444.877 60.114 449.501 62.89 449.604C65.666 449.707 118.456 449.604 118.456 449.604C118.456 449.604 119.073 448.166 118.97 444.877H59.4971Z" fill="#E5ECDB"/>
<path d="M200.457 397.21C200.457 397.21 213.777 421.107 213.195 422.602C212.612 424.098 161.079 451.237 161.079 451.237C161.079 451.237 154.567 442.491 158.474 436.474C162.381 430.457 173.051 422.305 172.994 420.924C172.937 419.542 169.669 413.594 169.669 413.594L186.109 404.848L200.457 397.21Z" fill="#5DAF01"/>
<path d="M161.079 451.237C161.079 451.237 163.855 454.993 166.334 453.749C168.813 452.504 215.023 426.998 215.023 426.998C215.023 426.998 214.875 425.434 213.195 422.602L161.079 451.237Z" fill="#E5ECDB"/>
<path d="M206.522 221.497L192.871 215.297C204.112 190.579 205.974 169.811 198.377 153.575C188.324 132.053 164.448 125.226 164.208 125.169L168.138 110.714C169.383 111.045 198.765 119.255 211.869 147.056C221.488 167.47 219.683 192.52 206.511 221.497H206.522Z" fill="#173102"/>
<path d="M165.053 125.431C164.574 125.271 164.277 125.192 164.208 125.169L168.161 110.714C168.161 110.714 168.709 110.863 169.703 111.182L165.053 125.431Z" fill="#5DAF01"/>
<path d="M210.967 210.696L196.881 205.559C197.155 204.816 197.418 204.086 197.669 203.355L211.823 208.276C211.549 209.075 211.252 209.874 210.967 210.685V210.696ZM214.851 198.297L200.331 194.587C200.525 193.844 200.696 193.114 200.868 192.383L215.479 195.74C215.285 196.585 215.079 197.429 214.862 198.297H214.851ZM217.318 185.304L202.433 183.535C202.524 182.781 202.604 182.039 202.673 181.297L217.593 182.655C217.513 183.523 217.421 184.402 217.318 185.293V185.304ZM202.89 172.54C202.856 171.809 202.81 171.09 202.753 170.382L217.695 169.16C217.764 170.051 217.832 170.964 217.867 171.889L202.89 172.551V172.54ZM201.359 161.944C201.188 161.248 200.993 160.563 200.788 159.901L215.148 155.596C215.411 156.475 215.65 157.366 215.879 158.268L201.348 161.944H201.359ZM197.658 152.103C197.326 151.463 196.984 150.835 196.641 150.23L209.664 142.82C210.121 143.608 210.555 144.419 210.978 145.252L197.658 152.114V152.103ZM191.82 143.3C191.363 142.752 190.883 142.215 190.415 141.69L201.496 131.608C202.113 132.282 202.707 132.978 203.313 133.686L191.82 143.311V143.3ZM184.12 135.821C183.549 135.365 182.966 134.919 182.395 134.497L191.306 122.452C192.026 122.988 192.745 123.536 193.465 124.107L184.12 135.821ZM174.993 129.782C174.33 129.416 173.667 129.074 173.039 128.765L179.779 115.384C180.556 115.772 181.356 116.195 182.167 116.64L174.981 129.782H174.993Z" fill="#5DAF01"/>
<path d="M206.523 221.486L192.871 215.309L193.362 214.224L207.071 220.275L206.523 221.486Z" fill="#5DAF01"/>
<path d="M148.82 187.382C148.82 187.382 184.44 172.927 198.549 182.095C212.657 191.263 229.942 281.849 224.653 294.18C219.363 306.522 177.037 326.959 177.037 326.959L148.82 187.382Z" fill="#5DAF01"/>
<path d="M186.885 197.714C186.885 197.714 201.93 240.484 207.574 297.342" stroke="#EAFFC7" stroke-width="1.09" stroke-miterlimit="10"/>
<path d="M200.457 397.21C200.457 397.21 197.304 403.672 188.142 408.365C177.655 413.754 169.681 413.582 169.681 413.582C169.681 413.582 144.251 384.548 139.099 364.419C138.745 362.992 138.471 361.645 138.322 360.355C138.242 359.704 138.219 359.053 138.196 358.436C137.751 338.707 138.642 325.235 138.642 325.235C138.642 325.235 123.3 351.301 121.38 359.841C121.335 360.012 121.3 360.195 121.277 360.343C121.129 361.142 121.003 362.364 120.9 363.917C120.124 374.329 120.021 399.425 120.021 410.751V416.494C120.021 416.494 110.676 414.393 101.914 414.028C89.4732 413.502 85.1549 416.048 85.1549 416.048C84.6294 415.226 84.0011 413.354 83.3613 410.751C80.037 397.838 75.5702 366.737 75.9472 354.007C75.97 353.082 76.0272 352.26 76.0957 351.563C76.1414 351.084 76.2214 350.593 76.3242 350.045C78.449 336.492 90.2157 306.453 90.2157 306.453C90.2157 306.453 89.2218 303.428 87.6682 298.119C87.4168 297.296 87.1655 296.417 86.9142 295.47C86.5144 294.077 86.0917 292.547 85.6461 290.948C85.4177 290.104 85.2006 289.202 84.9493 288.3C84.5951 286.975 84.2524 285.605 83.8983 284.155C83.6698 283.276 83.4527 282.408 83.2014 281.483C81.8077 275.786 80.334 269.324 78.9288 262.279C73.7538 236.419 76.1071 195.545 76.1071 195.545L161.615 187.758C161.615 187.758 185.994 226.486 192.472 264.631C192.643 265.579 192.803 266.55 192.917 267.509C193.123 268.879 193.294 270.26 193.443 271.607C193.568 272.612 193.648 273.583 193.717 274.53C193.842 275.775 193.922 277.008 193.945 278.229V278.252C193.991 279.303 194.048 280.319 194.048 281.369C194.071 284.817 193.9 288.208 193.477 291.508C188.759 328.432 184.361 339.244 185.537 350.855C185.686 352.18 185.857 353.504 186.166 354.851C186.371 355.879 186.611 356.918 186.92 358.003C191.146 373.53 200.48 397.255 200.48 397.255L200.457 397.21Z" fill="#E5ECDB"/>
<path d="M106.826 226.623L112.698 275.021" stroke="#5DAF01" stroke-width="1.47" stroke-linecap="round" stroke-linejoin="round"/>
<path d="M192.916 267.486C173.656 280.513 138.801 281.015 137.282 281.038L137.259 278.447C137.636 278.447 174.158 277.944 192.471 264.62C192.642 265.568 192.802 266.538 192.916 267.497V267.486Z" fill="#5DAF01"/>
<path d="M193.705 274.496C174.296 287.101 140.275 287.58 138.767 287.603L138.744 285.011C139.121 285.011 174.947 284.509 193.431 271.584C193.556 272.589 193.636 273.56 193.705 274.507V274.496Z" fill="#5DAF01"/>
<path d="M193.933 278.195V278.218C175.7 291.645 138.869 292.17 138.504 292.204L138.527 294.773C140.046 294.773 174.752 294.271 194.036 281.346L193.933 278.195Z" fill="#5DAF01"/>
<path d="M102.153 284.064C101.673 284.087 97.9264 284.361 92.4086 284.361C89.8839 284.361 87.0165 284.315 83.8863 284.133C83.6578 283.253 83.4408 282.386 83.1895 281.461C93.6767 282.066 101.776 281.461 101.948 281.461L102.153 284.053V284.064Z" fill="#5DAF01"/>
<path d="M101.274 290.732C100.794 290.755 97.0469 291.029 91.5291 291.029C89.7356 291.029 87.7592 291.006 85.6344 290.926C85.4059 290.081 85.1888 289.179 84.9375 288.277C94.1338 288.654 100.92 288.151 101.08 288.151L101.274 290.72V290.732Z" fill="#5DAF01"/>
<path d="M102.154 297.845C101.674 297.891 97.9268 298.165 92.409 298.165C90.9353 298.165 89.3588 298.142 87.668 298.085C87.4167 297.263 87.1654 296.384 86.9141 295.436C95.562 295.733 101.799 295.265 101.948 295.265L102.154 297.834V297.845Z" fill="#5DAF01"/>
<path d="M93.7224 278.755C93.7224 278.755 137.773 274.291 138.973 275.193C140.172 276.095 140.492 291.542 143.028 301.27C143.028 301.27 103.284 306.214 99.5486 304.912C95.813 303.61 92.6828 283.208 93.7224 278.755Z" fill="#5DAF01"/>
<path d="M91.78 277.351C91.78 277.351 135.831 272.886 137.03 273.788C138.23 274.69 138.55 290.138 141.086 299.866C141.086 299.866 101.342 304.809 97.6063 303.508C93.8706 302.206 90.7405 281.803 91.78 277.351Z" fill="#E5ECDB"/>
<path d="M97.6063 303.496C93.8706 302.195 90.7405 281.792 91.78 277.339C91.78 277.339 135.831 272.875 137.03 273.777" stroke="#5DAF01" stroke-width="1.47" stroke-linecap="round" stroke-linejoin="round"/>
<path d="M90.215 306.43C90.215 306.43 84.0918 288.106 78.9281 262.268C77.3288 254.253 76.4491 244.799 75.9922 235.574" stroke="#5DAF01" stroke-width="1.47" stroke-linecap="round" stroke-linejoin="round"/>
<path d="M164.551 301.464C164.551 301.464 172.079 306.054 171.017 312.322C169.954 318.59 171.725 326.354 174.775 328.911C177.837 331.469 180.773 333.147 181.127 337.2C181.481 341.253 167.258 352.465 152.91 345.934C138.573 339.404 143.622 320.965 144.09 314.697C144.559 308.428 145.975 303.667 145.975 303.667L164.551 301.464Z" fill="#5DAF01"/>
<path d="M172.925 307.481C172.377 308.931 171.749 310.301 171.075 311.602C171.075 311.602 168.23 307.184 159.136 304.832C150.249 302.537 145.976 303.656 145.976 303.656C146.376 302.263 146.673 300.756 146.924 299.157C149.278 284.075 145.496 261.206 141.681 243.829C141.429 242.653 141.178 241.511 140.904 240.404C138.105 228.199 135.512 219.43 135.512 219.43L170.081 210.97C170.081 210.97 172.982 222.901 175.279 239.102C175.45 240.381 175.633 241.694 175.781 243.018C178.454 263.764 179.722 290.058 172.937 307.458L172.925 307.481Z" fill="#E5ECDB"/>
<path d="M175.769 243.041C165.853 238.098 146.466 242.596 141.668 243.841C141.417 242.665 141.166 241.523 140.892 240.415C143.736 239.639 164.494 234.296 175.266 239.114C175.438 240.392 175.62 241.705 175.769 243.03V243.041Z" fill="#173102"/>
<path d="M145.976 303.668C146.375 302.275 146.672 300.768 146.924 299.169C149.551 282.26 144.502 255.566 140.298 237.79" stroke="#5DAF01" stroke-width="1.47" stroke-linecap="round" stroke-linejoin="round"/>
<path d="M170.08 210.981C170.08 210.981 185.674 274.85 172.925 307.481C172.376 308.931 171.748 310.301 171.074 311.603" stroke="#5DAF01" stroke-width="1.47" stroke-linecap="round" stroke-linejoin="round"/>
<path d="M173.051 157.856C164.208 196.744 130.736 223.677 92.82 225.881C84.7776 226.349 76.5295 225.698 68.2471 223.849C21.0433 213.151 -8.48768 166.237 2.21657 119.083C2.97055 115.772 3.93016 112.484 5.02687 109.344C8.32839 100.005 13.0922 91.4987 19.0098 84.0774C19.0098 84.0774 19.0441 84.066 19.0555 84.0317C23.3852 78.5286 28.366 73.6305 33.8381 69.4175C37.8479 66.3006 42.1205 63.5262 46.6101 61.1628C50.0944 59.2903 53.693 57.6805 57.4286 56.3218C72.7596 50.6702 89.8841 49.243 107.009 53.1249C121.7 56.4702 134.7 63.3206 145.279 72.603C146.307 73.4935 147.312 74.4183 148.295 75.366C151.208 78.1632 153.915 81.1546 156.406 84.3172C157.16 85.2877 157.902 86.2695 158.622 87.2743C172.811 106.924 178.808 132.361 173.016 157.879L173.051 157.856Z" fill="#E5ECDB"/>
<path d="M158.657 87.251C145.028 90.1739 130.394 100.518 130.245 100.621L128.292 97.8806C128.943 97.4239 142.629 87.742 156.429 84.2939C157.183 85.2644 157.926 86.2463 158.645 87.251H158.657Z" fill="#5DAF01"/>
<path d="M148.318 75.3429C134.518 78.0831 119.473 88.7469 119.313 88.8725L117.348 86.1323C117.999 85.6756 131.57 76.0508 145.302 72.5913C146.33 73.4819 147.336 74.4067 148.318 75.3543V75.3429Z" fill="#5DAF01"/>
<path d="M161.592 185.726C146.33 207.145 119.38 224.328 92.8084 225.87C87.4619 226.189 82.0241 226.007 76.5635 225.299" stroke="#5DAF01" stroke-width="1.47" stroke-linecap="round" stroke-linejoin="round"/>
<path d="M57.4397 56.3105C44.4164 68.3102 42.1088 84.5571 42.0745 84.7169L37.1279 84.0547C37.1965 83.4154 38.8073 72.272 46.6098 61.1401C50.1056 59.2791 53.7041 57.6578 57.4397 56.3105Z" fill="#5DAF01"/>
<path d="M33.838 69.4175C21.443 85.3561 16.188 105.553 16.1194 105.805L11.2871 104.572C11.4585 103.852 13.7775 94.8554 19.0211 84.066C19.0211 84.066 19.044 84.066 19.0668 84.0317C23.3965 78.5285 28.3774 73.6305 33.838 69.4175Z" fill="#5DAF01"/>
<path d="M130.862 192.177C122.511 210.125 76.4955 225.721 68.2245 223.837C51.3742 220.012 36.7858 211.552 25.4761 200.135C5.08428 179.583 -4.64894 149.396 2.21686 119.106C2.98227 115.76 3.91903 112.484 5.01573 109.344C26.8926 78.8481 65.4599 66.3004 97.6641 81.2686C110.15 87.0686 120.078 96.2367 127.012 107.426C140.664 129.336 143.406 165.243 130.862 192.177Z" fill="#173102"/>
<path d="M126.11 111.145C133.384 107.013 135.431 96.8958 130.684 88.5464C125.936 80.1971 116.191 76.7776 108.917 80.9089C101.643 85.0401 99.5959 95.1576 104.344 103.507C109.091 111.856 118.837 115.276 126.11 111.145Z" fill="#5DAF01"/>
<path d="M122.126 104.137C126.026 101.922 127.123 96.4951 124.576 92.0162C122.029 87.5373 116.803 85.7021 112.903 87.9173C109.002 90.1325 107.905 95.5591 110.452 100.038C112.999 104.517 118.226 106.352 122.126 104.137Z" fill="#173102"/>
<path d="M165.488 408.559C165.488 408.559 185.766 407.497 198.458 391.467C198.458 391.467 201.28 393.933 200.457 397.221C200.457 397.221 192.986 411.95 169.669 413.605C169.669 413.605 166.985 412.966 165.488 408.559Z" fill="#173102"/>
<path d="M120.044 416.482C120.044 416.482 110.699 414.382 101.937 414.016C89.4961 413.491 85.1778 416.037 85.1778 416.037C85.1778 416.037 83.5099 414.462 83.3271 410.774C83.3271 410.774 83.35 410.774 83.3728 410.751C84.5267 410.397 102.234 404.985 120.044 410.751C120.044 410.751 120.059 410.759 120.089 410.774C120.089 410.774 121.517 414.29 120.044 416.494V416.482Z" fill="#173102"/>
<path d="M194.402 222.159L212.978 215.343" stroke="#EAFFC7" stroke-width="1.09" stroke-miterlimit="10"/>
<path d="M171.074 311.603C171.074 311.603 168.23 307.184 159.136 304.832C150.248 302.537 145.976 303.656 145.976 303.656C145.976 303.656 145.45 300.756 146.753 299.158H146.924C148.843 299.055 164.711 298.507 172.902 307.195C172.902 307.195 172.925 307.298 172.925 307.469C173.005 308.292 173.028 310.712 171.074 311.591V311.603Z" fill="#173102"/>
<path d="M145.999 267.657C145.999 267.657 150.317 265.454 155.252 265.979" stroke="#5DAF01" stroke-width="1.47" stroke-linecap="round" stroke-linejoin="round"/>
<path d="M142.091 245.531C142.091 245.531 139.384 242.539 136.208 240.77" stroke="#5DAF01" stroke-width="1.47" stroke-linecap="round" stroke-linejoin="round"/>
<path d="M64.3633 276.026C64.3633 276.026 68.2703 275.261 71.092 275.969" stroke="#5DAF01" stroke-width="1.47" stroke-linecap="round" stroke-linejoin="round"/>
<path d="M11.082 111.057C11.082 111.057 -2.85526 140.376 11.5275 170.096L11.082 111.057Z" fill="#5DAF01"/>
<path d="M105.889 281.05L133.306 278.846" stroke="#5DAF01" stroke-width="1.47" stroke-linecap="round" stroke-linejoin="round"/>
<path d="M106.586 286.507L134.015 284.304" stroke="#5DAF01" stroke-width="1.47" stroke-linecap="round" stroke-linejoin="round"/>
<path d="M99.1827 289.681C101.814 289.681 103.947 287.55 103.947 284.92C103.947 282.291 101.814 280.159 99.1827 280.159C96.5518 280.159 94.4189 282.291 94.4189 284.92C94.4189 287.55 96.5518 289.681 99.1827 289.681Z" fill="#173102"/>
<path d="M99.7432 294.705L134.221 291.885" stroke="#5DAF01" stroke-width="1.47" stroke-linecap="round" stroke-linejoin="round"/>
<path d="M101.799 300.562C102.582 300.562 103.216 299.928 103.216 299.146C103.216 298.364 102.582 297.73 101.799 297.73C101.017 297.73 100.383 298.364 100.383 299.146C100.383 299.928 101.017 300.562 101.799 300.562Z" fill="#173102"/>
<path d="M112.207 299.614C112.989 299.614 113.623 298.98 113.623 298.198C113.623 297.417 112.989 296.783 112.207 296.783C111.424 296.783 110.79 297.417 110.79 298.198C110.79 298.98 111.424 299.614 112.207 299.614Z" fill="#173102"/>
<path d="M123.31 298.678C124.092 298.678 124.727 298.044 124.727 297.262C124.727 296.481 124.092 295.847 123.31 295.847C122.528 295.847 121.894 296.481 121.894 297.262C121.894 298.044 122.528 298.678 123.31 298.678Z" fill="#173102"/>
<path d="M133.889 297.445C134.672 297.445 135.306 296.811 135.306 296.03C135.306 295.248 134.672 294.614 133.889 294.614C133.107 294.614 132.473 295.248 132.473 296.03C132.473 296.811 133.107 297.445 133.889 297.445Z" fill="#173102"/>
<path d="M136.901 247.147L120.863 248.65L121.291 253.209L137.329 251.705L136.901 247.147Z" fill="#5DAF01"/>
<path d="M186.142 354.817C177.151 358.585 154.338 367.148 139.098 364.431C138.744 363.003 138.47 361.656 138.321 360.366C153.664 363.209 176.592 354.577 185.514 350.833C185.662 352.157 185.834 353.481 186.142 354.829V354.817Z" fill="#173102"/>
<path d="M121.392 359.841C121.346 360.012 121.312 360.195 121.289 360.343C121.14 361.142 121.015 362.364 120.912 363.917C111.944 360.126 90.8898 352.157 75.9473 354.006C75.9701 353.082 76.0272 352.26 76.0958 351.563C76.1415 351.084 76.2214 350.593 76.3242 350.045C91.1411 348.069 112.173 355.959 121.392 359.852V359.841Z" fill="#173102"/>
<path d="M97.3319 145.241L98.3258 142.089L80.7214 127.292L79.7275 130.444L97.3319 145.241Z" fill="#D9E3CB"/>
<path d="M86.845 148.3L84.3203 146.165L91.209 124.232L93.7337 126.367L86.845 148.3Z" fill="#D9E3CB"/>
<path d="M44.8504 161.659L45.8329 158.507L28.24 143.71L27.2461 146.862L44.8504 161.659Z" fill="#D9E3CB"/>
<path d="M34.3636 164.718L31.8389 162.595L38.7161 140.662L41.2522 142.786L34.3636 164.718Z" fill="#D9E3CB"/>
<path d="M64.8652 188.523C64.8652 188.523 77.3859 173.898 97.652 177.243" stroke="#D9E3CB" stroke-width="3.28" stroke-linecap="round" stroke-linejoin="round"/>
<path d="M163.9 64.1999L180.887 26.1573L167.887 18.0396L158.462 61.0944C159.399 62.0078 163.9 64.1999 163.9 64.1999Z" fill="#173102"/>
<path d="M167.829 71.0962L199.759 44.311L211.137 54.5752L172.307 75.469C171.165 74.8296 167.829 71.1076 167.829 71.1076V71.0962Z" fill="#173102"/>
<path d="M0 451.328H655.827" stroke="#173102" stroke-width="1.47" stroke-miterlimit="10"/>
<path d="M591.83 250.462L545.974 303.759C543.906 306.168 545.22 309.856 548.35 310.404L619.305 322.769C622.697 323.362 625.473 320.234 624.285 317.151L599.176 251.49C598.045 248.544 593.966 247.985 591.819 250.474L591.83 250.462Z" fill="#D9E3CB"/>
<path d="M584.724 307.538C582.531 307.161 581.137 305.22 581.537 303.096C581.937 300.973 583.959 299.603 586.152 299.968C588.3 300.322 589.705 302.263 589.305 304.398C588.905 306.533 586.872 307.903 584.724 307.538ZM591.373 271.173C593.155 271.436 594.32 273.069 593.943 274.781L589.728 294.225C589.431 295.584 588.06 296.497 586.644 296.257C585.227 296.029 584.279 294.75 584.496 293.38L587.626 273.822C587.9 272.11 589.591 270.911 591.362 271.173H591.373Z" fill="#173102"/>
</g>
<defs>
<clipPath id="clip0_5536_6815">
<rect width="680" height="454" fill="white"/>
</clipPath>
</defs>
</svg>
