<svg width="522" height="530" viewBox="0 0 522 530" fill="none" xmlns="http://www.w3.org/2000/svg">
<path d="M127.028 306.102C127.948 305.711 128.867 305.312 130.133 304.773C119.824 300.264 109.752 295.857 99.6741 291.457C91.6658 287.963 83.7024 284.353 75.6298 281.019C69.0868 278.321 65.7318 273.33 65.3012 266.605C64.8963 260.329 67.8785 255.499 73.1938 251.998C104.552 231.308 135.872 210.542 167.225 189.839C171.672 186.903 175.663 183.043 181.487 182.786C190.793 182.375 197.208 187.192 198.834 196.384C201.597 212.006 204.143 227.66 206.752 243.307C208.044 251.047 209.284 258.801 210.647 267.164C211.315 264.993 210.814 263.072 211.823 261.556C213.263 262.365 213.199 263.682 213.205 265.115C213.231 269.598 214.021 274.024 214.51 278.463C217.248 287.905 216.425 298.285 221.953 307.008C221.31 308.453 219.889 308.453 218.707 308.492C210.538 308.781 206.058 313.766 203.121 320.651C202.819 321.352 202.684 322.238 202.375 323.015C200.845 326.921 199.644 327.197 196.777 324.255C194.849 322.277 192.966 320.17 190.71 318.622C184.16 314.112 176.467 312.77 168.189 317.748C166.614 318.692 165.303 320.105 163.432 320.549C157.629 319.592 152.525 316.733 147.204 314.498C143.347 312.879 139.529 311.183 135.57 309.796C134.446 308.081 132.935 307.368 130.814 307.49C129.484 307.567 127.793 307.888 127.035 306.096L127.028 306.102Z" fill="#7BDA08"/>
<path d="M496.454 322.842C500.677 322.842 504.899 322.906 509.116 322.803C511.854 322.739 513.062 323.799 513.055 326.638C513.004 344.534 513.004 362.429 513.075 380.325C513.088 383.222 511.77 384.082 509.083 384.082C475.308 384.044 441.533 384.025 407.758 384.108C404.345 384.114 403.593 382.579 403.631 379.586C403.734 370.42 403.683 361.254 403.644 352.087C403.638 350.263 404.101 348.176 401.768 347.206C402.307 344.508 404.615 345.163 406.235 345.124C425.099 344.726 443.95 344.09 462.781 342.851C475.989 341.983 486.742 337.108 493.182 324.859C493.832 323.619 494.648 322.354 496.447 322.842H496.454Z" fill="#7BDA08"/>
<path d="M297.055 157.003C294.485 154.273 291.239 155.943 288.359 155.872C277.491 155.602 278.519 156.771 278.5 145.909C278.474 132.941 278.622 119.972 278.423 107.009C278.359 102.789 279.901 101.46 284.034 101.485C308.38 101.62 332.727 101.627 357.073 101.485C361.328 101.46 362.735 103.014 362.562 107.119C362.292 113.516 362.414 119.927 362.369 126.331C359.952 127.095 358.583 125.168 356.893 124.141C355.055 123.023 353.352 121.693 351.372 120.813C344.141 116.407 337.187 118.006 330.419 121.905C320.354 127.706 313.496 136.711 306.709 145.781C304.53 148.684 302.583 151.729 300.635 154.787C299.838 156.039 299.041 157.536 297.062 157.003H297.055Z" fill="#E7E7E7"/>
<path d="M352.046 119.798C355.87 121.372 359.29 123.575 362.368 126.325C367.118 132.099 370.897 138.394 372.504 145.787C372.948 147.817 374.574 148.447 376.058 149.288C383.488 153.515 390.931 157.716 398.374 161.929C398.843 163.188 398.772 164.332 397.686 165.276C396.066 166.368 394.678 165.501 393.2 164.826C389.086 162.931 385.32 160.407 381.252 158.429C378.681 157.176 377.132 157.536 376.855 160.78C374.342 190.327 364.187 218.153 357.22 246.686C351.005 272.148 344.166 297.476 337.27 322.771C335.811 328.116 334.262 333.421 332.61 338.708C331.325 342.838 332.276 344.425 336.537 344.193C347.149 343.628 357.786 343.679 368.384 342.902C369.541 342.819 370.698 342.549 371.861 342.594C384.549 343.063 397.211 342.003 409.853 341.476C427.875 340.718 445.948 340.68 463.932 339.01C476.542 337.841 485.842 332.149 491.331 320.337C496.743 308.691 499.352 296.32 501.615 283.852C503.569 273.099 506.454 262.558 508.498 251.825C510.889 239.267 506.461 229.902 496.261 222.804C484.865 214.877 472.461 208.679 460.384 201.921C441.944 191.612 423.376 181.527 404.827 171.423C402.944 170.402 400.79 169.451 400.925 166.689C401.581 164.711 402.899 164.569 404.557 165.379C425.124 176.594 445.698 187.784 466.246 199.031C473.271 202.872 480.231 206.829 487.198 210.76C489.731 212.192 492.263 213.631 494.718 215.192C512.83 226.677 517.169 236.492 512.952 257.407C509.964 272.232 506.609 286.98 503.369 301.754C501.782 309.012 499.076 315.918 496.454 322.842C488.535 339.479 474.248 344.572 457.074 344.945C439.335 345.33 421.602 346.127 403.869 346.769C403.162 346.795 402.468 347.052 401.761 347.206C376.926 348.092 352.091 349.024 327.25 349.801C325.212 349.865 324.557 350.906 323.644 352.242C319.306 358.607 313.907 363.753 306.618 366.669C302.627 368.268 298.539 368.988 294.259 368.243C291.951 366.084 293.089 364.735 295.332 363.63C308.907 362.494 317.133 354.419 322.719 342.754C327.295 333.203 329.384 322.88 332 312.751C343.016 270.17 354.868 227.808 365.312 185.086C367.909 174.474 370.139 163.876 368.423 152.725C366.745 141.805 362.06 132.889 353.518 125.939C351.982 124.693 349.957 123.678 350.433 121.109C350.729 120.383 351.256 119.94 352.027 119.798H352.046Z" fill="#080808"/>
<path d="M127.029 306.102C129.04 306.09 131.091 305.858 133.057 306.147C134.465 306.353 136.387 306.462 136.49 308.691C135.77 311.164 133.604 310.798 131.811 310.965C111.359 312.866 95.6573 323.009 83.2527 338.868C81.6331 340.936 80.3091 343.217 79.2936 345.645C76.7034 351.824 78.5994 356.886 84.7182 359.699C89.2622 361.793 94.1598 362.725 99.0638 363.444C120.107 366.534 141.22 368.756 162.494 369.887C177.952 370.709 193.403 370.831 208.815 370.362C224.627 369.88 240.605 369.675 255.882 364.363C263.518 361.71 269.894 357.342 275.248 351.349C288.198 336.845 297.891 320.292 305.681 302.602C315.103 281.225 322.668 259.192 327.957 236.415C328.394 234.52 328.806 232.664 331.126 232.201C333.678 232.831 334.706 234.777 335.336 237.051C330.65 259.321 323.195 280.698 314.293 301.593C306.747 319.315 297.711 336.17 285.319 351.079C282.266 354.753 282.684 356.68 286.399 359.898C287.761 361.074 289.85 361.774 289.606 364.189C288.983 365.827 287.729 366.123 286.187 365.801C282.722 364.613 280.254 362.147 278.198 359.282C277.15 357.824 276.469 357.791 275.19 359.012C263.614 370.086 248.902 373.079 233.785 374.274C187.188 377.967 140.822 375.591 94.6932 368.184C89.5065 367.349 84.4096 366.065 79.8399 363.283C73.2005 359.243 70.9638 353.513 73.1491 346.107C74.1068 342.857 75.6429 339.864 77.6996 337.198C90.3484 320.85 105.883 309.038 127.009 306.102H127.029Z" fill="#0A0A0A"/>
<path d="M213.584 253.418C217.794 231.565 240.682 215.43 263.46 218.256C270.806 219.168 270.748 219.149 273.017 211.948C274.148 208.351 275.524 204.831 276.79 201.273C278.159 199.885 279.477 199.416 280.653 201.478C281.713 203.039 280.923 204.561 280.479 206.064C279.785 208.435 278.911 210.747 278.198 213.104C276.681 218.102 280.074 222.418 285.306 222.187C287.716 222.084 288.333 220.209 288.931 218.404C291.026 212.064 293.212 205.75 295.885 199.628C296.734 197.695 297.293 195.35 300.095 195.215C303.264 197.142 303.412 197.521 302.897 202.268C303.18 201.774 303.264 201.196 303.559 200.701C304.941 198.356 306.947 196.699 309.582 198.087C312.076 199.397 311.009 201.754 310.128 203.778C303.405 211.743 297.981 220.472 294.266 230.249C292.517 234.848 290.403 235.49 286.315 232.683C275.254 225.097 263.261 221.596 249.879 224.41C235.263 227.48 225.623 236.409 220.069 250.052C219.003 252.673 218.514 255.807 214.844 256.263C213.366 255.775 213.07 254.773 213.591 253.411L213.584 253.418Z" fill="#080808"/>
<path d="M352.047 119.799C351.693 120.145 351.346 120.499 350.993 120.846C350.292 122.477 348.878 122.875 347.368 122.573C336.898 120.499 329.436 125.881 322.636 132.632C313.38 141.824 306.118 152.526 299.652 163.799C296.175 169.862 292.935 176.035 290.204 182.478C289.323 184.553 288.668 186.942 286.283 188.041C284.888 187.957 282.24 190.392 282.825 186.332C286.624 176.1 292.068 166.664 297.049 157.003C302.056 149.732 306.722 142.223 312.622 135.594C317.262 130.384 322.044 125.342 327.906 121.462C333.973 117.448 340.529 115.655 347.747 117.383C349.334 117.762 351.32 117.743 352.04 119.799H352.047Z" fill="#0C0C0C"/>
<path d="M213.045 161.73C212.717 157.093 212.37 152.449 212.087 147.811C212.01 146.539 211.817 144.888 213.72 144.92C215.198 144.946 215.281 146.398 215.352 147.573C215.975 157.292 216.593 167.01 217.203 176.729C217.274 177.885 217.499 179.408 216.027 179.626C214.259 179.889 214.041 178.303 213.957 176.967C213.636 171.892 213.353 166.811 213.051 161.73H213.045Z" fill="#111111"/>
<path d="M228.695 183.146C228.238 182.806 227.66 182.568 227.409 182.138C226.844 181.168 227.544 180.467 228.225 179.941C230.308 178.348 232.435 176.813 234.55 175.265C240.424 170.961 246.292 166.651 252.186 162.373C253.08 161.724 254.082 160.619 255.213 161.865C256.37 163.137 255.271 164.004 254.339 164.692C246.37 170.569 238.38 176.421 230.385 182.266C229.929 182.6 229.376 182.793 228.695 183.146Z" fill="#0F0F0F"/>
<path d="M256.602 196.918C249.237 196.231 241.871 195.582 234.512 194.817C233.22 194.683 231.105 194.914 231.401 192.768C231.645 191.021 233.464 191.548 234.679 191.664C242.912 192.421 251.139 193.212 259.366 194.066C260.671 194.201 262.785 193.828 262.477 196.031C262.239 197.753 260.459 197.2 259.205 197.136C258.338 197.091 257.47 196.988 256.602 196.911C256.602 196.911 256.602 196.924 256.602 196.931V196.918Z" fill="#0F0F0F"/>
<path d="M213.584 253.418C213.97 254.381 214.58 255.127 215.576 255.506C217.292 256.379 217.556 258.03 217.337 259.597C216.598 264.961 217.337 270.209 217.999 275.514C218.488 279.426 216.708 280.525 212.851 279.092C211.63 273.298 212.208 267.402 211.816 261.556C212.221 258.807 212.266 255.974 213.584 253.424V253.418Z" fill="#1A1A1A"/>
<path d="M282.832 186.332C283.699 188.066 284.734 186.666 285.705 186.486C287.781 190.315 283.519 200.913 279.387 202.198C278.866 200.92 277.812 201.138 276.79 201.279C278.275 196.083 280.344 191.124 282.832 186.338V186.332Z" fill="#252525"/>
<path d="M286.199 365.795C287.125 365.217 288.05 364.645 288.969 364.067C291.714 361.96 293.931 362.005 295.275 365.615C293.841 366.071 294.702 367.401 294.272 368.236C291.322 368.281 288.642 367.427 286.199 365.795Z" fill="#232323"/>
<path d="M397.5 164.588C397.789 163.702 398.085 162.822 398.374 161.936C400.624 162.745 402.687 163.888 404.557 165.385C403.419 165.52 402.423 165.873 401.909 167.016C399.184 168.487 397.629 167.832 397.5 164.588Z" fill="#252525"/>
<path d="M212.852 279.086C214.928 279.471 217.017 279.51 216.162 276.51C214.163 269.528 214.973 262.526 215.583 255.499C219.414 244.136 225.051 234.064 235.643 227.538C251.075 218.032 272.426 219.246 286.836 230.692C289.786 233.037 291.033 233.384 292.421 229.292C295.821 219.291 301.419 210.497 308.335 202.532C312.313 195.505 318.477 193.141 326.267 193.957C333.69 194.74 336.473 197.695 336.66 205.063C336.827 211.743 335.227 218.179 334.192 224.699C333.292 227.455 333.993 230.788 331.126 232.799C324.551 261.422 315.084 289.036 302.043 315.378C296.734 326.105 289.966 335.907 283.018 345.652C271.353 362.012 255.272 369.367 235.829 370.947C188.235 374.82 140.912 372.501 93.8319 364.774C89.6542 364.087 85.5729 362.956 81.8644 360.817C76.2341 357.573 74.4281 352.961 76.3048 346.776C77.3332 343.384 79.1071 340.352 81.3052 337.629C95.5159 320.022 113.017 308.634 136.509 308.679C137.646 308.769 138.926 308.544 139.89 308.993C147.57 312.603 155.713 315.179 163.079 319.476C164.062 321.056 162.79 322.091 162.012 323.041C159.865 325.675 158.072 328.501 156.697 331.597C160.932 322.553 167.064 315.475 177.624 314.627C188.345 313.766 194.502 321.474 200.691 329.073C202.42 324.377 203.095 319.99 205.544 316.065C210.891 307.484 221.651 306 229.871 312.79C238.117 319.598 242.411 328.745 245.772 338.541C246.743 341.38 247.597 344.251 248.517 347.103C246.042 339.074 243.613 331.038 239.171 323.793C235.366 317.588 230.932 312.077 223.778 309.456C222.685 309.058 221.638 308.46 221.651 307.015C217.627 306.392 216.592 303.688 216.142 300.02C215.281 293.012 213.983 286.062 212.865 279.086H212.852Z" fill="#FEFEFE"/>
<path d="M221.631 307.021C228.997 308.794 234.235 313.47 238.4 319.502C244.956 329.009 248.105 339.935 251.209 350.854C251.518 351.94 251.91 353.385 250.348 353.79C248.793 354.195 248.439 352.698 248.143 351.651C246.286 345.067 244.332 338.522 241.671 332.207C239.345 326.683 236.6 321.358 232.3 317.087C227.396 312.224 221.856 307.978 214.503 310.715C206.791 313.592 204.11 320.401 203.281 328.026C203.095 329.734 203.429 331.501 203.564 333.235C203.635 334.179 203.506 335.047 202.471 335.316C201.443 335.58 200.91 334.912 200.505 334.044C199.772 332.464 199.065 330.858 198.197 329.355C193.878 321.898 187.914 316.335 178.922 316.213C169.802 316.091 163.992 321.924 159.666 329.291C158.278 331.655 157.378 334.308 156.292 336.845C155.88 337.802 155.553 338.939 154.254 338.644C152.57 338.252 153.059 336.884 153.361 335.804C155.115 329.484 158.695 324.242 163.079 319.476C176.544 309.79 187.194 311.004 198.094 323.491C198.557 324.024 198.872 324.692 199.74 326.06C203.326 314.382 208.507 305.807 221.644 307.015L221.631 307.021Z" fill="#0C0C0C"/>
<path d="M182.11 216.573C181.808 217.299 181.448 218.411 180.921 219.432C173.028 234.675 165.116 249.898 157.198 265.128C156.928 265.642 156.652 266.162 156.305 266.625C155.508 267.697 154.602 268.847 153.085 268.121C151.446 267.331 152.031 265.879 152.526 264.691C154.794 259.18 157.115 253.688 159.461 248.209C164.21 237.109 168.973 226.022 173.761 214.942C174.719 212.719 175.876 210.574 178.916 211.563C181.082 212.27 182.252 213.805 182.11 216.58V216.573Z" fill="#FBFBFB"/>
<path d="M146.947 276.715C149.479 277.345 151.896 278.565 152.147 281.873C152.352 284.616 149.319 287.77 146.664 287.513C143.547 287.211 141.619 285.31 141.419 282.156C141.259 279.529 144.164 276.683 146.947 276.722V276.715Z" fill="#FAFAFA"/>
<path d="M397.5 164.588C398.766 165.77 400.27 166.516 401.909 167.017C415.786 174.712 429.662 182.407 443.532 190.109C458.302 198.311 473.11 206.456 487.822 214.768C491.994 217.125 496.004 219.83 499.861 222.682C509.193 229.574 513.171 239.055 510.89 250.296C506.892 269.971 503.428 289.774 498.022 309.141C497.007 312.77 495.439 316.245 494.05 319.758C488.587 333.639 478.002 340.448 463.45 341.251C445.403 342.24 427.342 342.979 409.281 343.686C383.495 344.694 357.709 345.587 331.923 346.506C327.115 346.679 327.27 346.679 328.966 342.028C334.751 326.13 338.434 309.622 342.74 293.307C352.137 257.696 361.379 222.046 370.647 186.402C373.52 175.348 375.23 164.158 373.841 151.909C382.081 156.322 389.788 160.452 397.5 164.582V164.588Z" fill="#FEFEFE"/>
<path d="M295.275 365.615C293.173 365.101 291.071 364.588 288.97 364.067C288.34 363.701 287.716 363.335 287.086 362.969C278.872 358.209 278.422 356.051 284.355 348.818C300.487 329.156 310.617 306.308 319.499 282.805C325.007 268.224 329.603 253.36 332.784 238.079C333.562 234.276 332.379 230.294 333.858 226.562C336.917 208.216 340.105 189.884 341.795 171.34C342.187 167.01 342.438 162.597 341.197 158.313C338.845 150.194 333.086 148.479 326.768 154.009C323.31 157.035 321.022 160.947 318.837 164.903C313.907 173.825 308.849 182.67 304.395 191.85C303.534 193.622 302.872 195.768 300.314 195.916C295.712 204.176 292.717 213.079 290.236 222.136C289.259 225.714 287.832 226.69 284.573 224.814C283.326 224.095 281.932 223.632 280.614 223.042C275.987 220.969 274.45 217.447 276.006 212.475C277.092 209.032 278.262 205.615 279.393 202.191C281.501 196.956 283.603 191.721 285.711 186.48C290.557 177.05 294.767 167.299 300.32 158.229C305.648 149.519 311.549 141.24 318.535 133.769C327.321 124.378 336.936 117.004 351.005 120.839C351.577 121.488 352.053 122.284 352.747 122.759C369.169 133.93 372.909 150.348 370.718 168.526C368.372 187.938 362.215 206.572 357.304 225.444C348.357 259.822 339.231 294.155 330.143 328.494C328.279 335.547 325.958 342.465 322.096 348.715C315.938 358.691 307.666 365.429 295.288 365.602L295.275 365.615Z" fill="#FEFEFE"/>
<path d="M335.323 226.626C334.93 230.544 334.101 234.366 332.79 238.085C332.649 236.197 332.54 234.295 331.119 232.805C331.338 230.069 331.659 227.352 332.687 224.77C333.992 224.789 334.339 226.157 335.323 226.626Z" fill="#2B2B2B"/>
<path d="M359.818 18.4947L361.746 16.5034C345.125 3.41255 326.267 -1.88675 305.295 0.592677C296.162 1.67181 287.569 4.66511 280.66 10.8894C277.446 13.7799 274.393 14.6728 270.44 13.645C269.605 13.4266 268.705 13.4266 267.837 13.3624C209.671 9.3028 156.986 43.3147 136.792 97.9071C136.342 99.1276 136.49 100.855 134.62 101.337C135.005 96.6738 135.397 92.1261 135.738 87.5655C135.821 86.4157 135.937 84.9897 134.298 84.9062C132.698 84.8291 132.608 86.2423 132.524 87.4049C132.132 92.929 131.869 98.4595 131.374 103.977C131.078 107.298 132.479 107.632 135.249 106.874C141.992 105.031 148.792 103.393 155.56 101.62C156.864 101.279 159.011 101.312 158.42 99.2432C157.841 97.2134 156.022 98.3311 154.698 98.6523C149.544 99.9048 144.395 101.196 138.412 102.68C150.013 70.8582 169.442 46.8154 198.564 31.1359C222.024 18.5011 247.154 14.1332 273.924 17.2421C272.69 19.7601 271.61 21.6614 270.8 23.6719C266.378 34.6367 270.048 47.355 279.496 54.0803C288.559 60.5294 300.552 58.4418 307.384 49.2242C313.702 40.7004 311.652 30.0953 302.332 23.2673C298.045 20.1262 293.193 18.1607 288.109 16.7411C285.878 16.118 283.635 15.5656 280.994 14.8783C283.121 12.476 285.416 10.9922 287.794 9.64324C297.094 4.38248 307.185 2.67386 317.719 3.15561C333.337 3.87503 347.188 9.5212 359.811 18.4947H359.818ZM287.582 19.8243C292.087 21.109 296.381 22.8562 300.186 25.6182C308.367 31.5599 310.154 40.3728 304.691 47.5413C298.643 55.4806 287.942 56.9644 280.364 50.8365C274.811 46.3465 272.182 40.4242 272.111 33.3199C272.176 32.305 272.188 31.2837 272.311 30.2752C273.59 19.394 277.285 16.8824 287.582 19.8179V19.8243Z" fill="#090909"/>
<path d="M75.1415 388.56C70.9509 376.323 57.0938 364.131 40.4215 373.561C38.0562 374.897 37.3043 374.621 35.7553 372.533C30.6585 365.667 23.6528 362.693 15.1238 363.894C8.12455 364.877 2.69353 370.362 1.09314 377.704C-0.622936 385.566 0.816768 388.907 8.22096 393.705C19.1409 400.777 31.1405 404.258 44.1493 404.291C53.006 404.316 61.5414 402.704 69.6205 399.049C74.5052 396.839 76.684 393.05 75.1479 388.553L75.1415 388.56ZM67.9558 396.351C60.211 399.685 52.0998 401.162 44.3228 401.137C31.5969 400.989 20.4135 397.784 10.2134 391.225C6.1321 388.598 2.60354 385.81 3.82472 380.049C5.12303 373.927 7.85461 369.135 14.269 367.305C21.7246 365.172 30.6649 368.801 34.2513 376.137C36.2759 380.286 37.42 379.875 40.6529 377.267C51.3607 368.621 69.7362 376.002 72.1207 389.613C72.7505 393.184 70.9059 395.086 67.9622 396.358L67.9558 396.351Z" fill="#0A0A0A"/>
<path d="M259.031 429.723C255.104 417.399 241.511 404.913 224.641 413.983C222.247 415.268 221.501 414.975 219.998 412.855C215.049 405.881 208.109 402.757 199.556 403.775C192.538 404.607 186.99 409.975 185.232 417.281C183.348 425.104 184.716 428.475 192.015 433.431C202.781 440.736 214.703 444.474 227.708 444.785C236.562 445.001 245.13 443.572 253.286 440.091C258.217 437.987 260.477 434.245 259.037 429.717L259.031 429.723ZM251.68 437.358C243.865 440.525 235.724 441.828 227.949 441.636C215.229 441.215 204.117 437.77 194.06 430.995C190.036 428.28 186.569 425.418 187.913 419.683C189.342 413.591 192.176 408.859 198.628 407.166C206.128 405.194 214.988 409.015 218.417 416.425C220.352 420.617 221.504 420.231 224.792 417.693C235.683 409.279 253.896 417.052 255.988 430.711C256.541 434.295 254.656 436.157 251.686 437.365L251.68 437.358Z" fill="#0A0A0A"/>
<path d="M335.322 226.626C332.25 229.112 333.227 225.868 332.687 224.769C333.401 217.556 334.705 210.413 334.763 203.116C334.789 200.136 333.645 198.581 331.087 197.515C324.705 194.862 318.644 195.164 312.923 199.243C311.387 200.335 309.864 201.44 308.334 202.538C308.392 201.523 310.147 200.418 308.688 199.615C307.672 199.056 306.715 200.161 305.963 201.215C304.652 203.065 303.116 204.767 301.554 206.411C300.75 207.253 299.613 208.011 298.565 206.732C297.819 205.82 297.993 204.536 298.919 204.002C302.723 201.806 300.519 198.716 300.313 195.915C306.419 182.034 313.688 168.77 321.96 156.071C323.792 153.258 326.286 150.958 329.364 149.404C334.204 146.956 338.549 148.112 341.409 152.705C343.549 156.148 344.43 160.002 344.243 163.991C343.247 185.143 340.021 205.987 335.329 226.619L335.322 226.626Z" fill="black"/>
<path d="M278.995 275.328C281.617 275.283 284.953 276.176 288.006 278.058C288.835 278.572 289.998 279.105 289.42 280.377C288.745 281.86 287.575 281.43 286.482 280.826C282.652 278.719 278.66 277.826 274.296 278.867C268.306 280.3 264.25 283.884 261.956 289.536C261.442 290.795 261.371 292.941 259.314 292.054C257.457 291.251 258.633 289.53 259.089 288.245C261.859 280.492 269.559 275.264 278.995 275.334V275.328Z" fill="#0D0D0D"/>
<path d="M453.623 224.365C452.132 239.851 450.564 254.606 449.375 269.393C449.041 273.568 447.684 273.844 444.22 272.457C435.171 268.834 425.922 265.706 416.936 261.935C413.112 260.329 411.467 261.132 409.648 264.71C405.367 273.137 400.618 281.327 396.003 289.581C395.302 290.828 394.833 293.249 392.731 291.926C391.08 290.885 392.629 289.279 393.271 288.098C398.503 278.52 403.876 269.02 409.012 259.391C410.361 256.861 411.795 256.629 414.25 257.586C423.325 261.139 432.465 264.537 441.585 267.98C446.2 269.727 446.135 269.714 446.598 264.614C447.806 251.279 449.041 237.944 450.352 224.622C450.84 219.669 451.296 219.464 455.558 221.795C466.291 227.653 477.025 233.512 487.713 239.44C488.954 240.128 491.454 240.616 490.252 242.658C489.108 244.598 487.386 242.793 486.107 242.1C475.508 236.357 464.942 230.55 453.623 224.358V224.365Z" fill="#0B0B0B"/>
<path d="M450.62 154.872C447.496 153.168 445.274 150.93 443.953 148.158C442.67 145.408 442.285 142.219 442.798 138.592C443.332 134.927 444.779 130.931 447.14 126.602C449.501 122.274 452.067 118.912 454.838 116.517C457.63 114.084 460.53 112.662 463.538 112.252C466.583 111.862 469.668 112.519 472.791 114.223C475.915 115.926 478.119 118.154 479.402 120.905C480.723 123.676 481.116 126.894 480.583 130.559C480.07 134.186 478.633 138.163 476.272 142.492C473.911 146.82 471.335 150.201 468.543 152.633C465.771 155.029 462.863 156.421 459.818 156.811C456.81 157.222 453.744 156.575 450.62 154.872ZM452.16 152.049C455.886 154.081 459.568 154.136 463.205 152.213C466.863 150.252 470.221 146.468 473.28 140.86C476.338 135.252 477.692 130.398 477.339 126.299C477.007 122.162 474.978 119.078 471.252 117.045C467.526 115.013 463.834 114.977 460.176 116.938C456.539 118.861 453.191 122.626 450.132 128.234C447.073 133.842 445.71 138.715 446.042 142.852C446.394 146.951 448.434 150.016 452.16 152.049Z" fill="black"/>
<path d="M486.945 173.872C483.821 172.168 481.598 169.93 480.277 167.158C478.994 164.408 478.609 161.219 479.122 157.592C479.656 153.927 481.103 149.931 483.464 145.602C485.825 141.274 488.391 137.912 491.163 135.517C493.955 133.084 496.854 131.662 499.862 131.252C502.907 130.862 505.992 131.519 509.116 133.223C512.24 134.926 514.443 137.154 515.726 139.905C517.047 142.676 517.441 145.894 516.907 149.559C516.394 153.186 514.957 157.163 512.596 161.492C510.235 165.82 507.659 169.201 504.867 171.633C502.095 174.029 499.187 175.421 496.142 175.811C493.134 176.222 490.068 175.575 486.945 173.872ZM488.484 171.049C492.21 173.081 495.892 173.136 499.529 171.213C503.187 169.252 506.545 165.468 509.604 159.86C512.663 154.252 514.016 149.398 513.663 145.299C513.331 141.162 511.302 138.078 507.576 136.045C503.85 134.013 500.158 133.977 496.5 135.938C492.863 137.861 489.515 141.626 486.456 147.234C483.398 152.842 482.034 157.715 482.366 161.852C482.719 165.951 484.758 169.016 488.484 171.049Z" fill="black"/>
<path d="M415.745 135.63C413.148 134.214 411.114 132.347 409.642 130.031C408.191 127.677 407.375 125.01 407.194 122.029L410.222 121.044C410.458 124.103 411.252 126.587 412.604 128.496C413.993 130.426 415.572 131.873 417.341 132.838C419.449 133.988 421.626 134.516 423.874 134.424C426.122 134.331 428.187 133.724 430.069 132.602C432.009 131.462 433.534 129.876 434.642 127.844C435.669 125.962 436.17 124.013 436.146 121.998C436.122 119.983 435.585 118.102 434.534 116.357C433.484 114.612 431.923 113.175 429.853 112.046C428.762 111.451 427.503 110.984 426.076 110.645C424.707 110.289 423.315 110.067 421.898 109.978C420.54 109.872 419.311 109.886 418.213 110.019L417.7 106.663L429.16 91.1575L450.501 102.797L449.053 105.451L428.56 94.2729L430.69 94.2626L420.209 108.105L419.178 107.176C420.297 107.005 421.564 106.964 422.981 107.053C424.397 107.142 425.846 107.395 427.328 107.812C428.868 108.212 430.296 108.772 431.614 109.49C434.06 110.825 435.935 112.58 437.239 114.756C438.601 116.915 439.312 119.281 439.374 121.854C439.494 124.41 438.866 126.949 437.491 129.471C436.054 132.105 434.139 134.138 431.748 135.568C429.376 136.961 426.779 137.693 423.957 137.765C421.154 137.799 418.417 137.088 415.745 135.63Z" fill="black"/>
<path d="M183.89 520.819C182.698 520.819 181.554 520.64 180.457 520.282C179.384 519.924 178.383 519.4 177.453 518.709C176.547 517.993 175.748 517.123 175.057 516.098L176.344 514.775C177.393 516.301 178.561 517.397 179.849 518.065C181.136 518.709 182.507 519.03 183.962 519.03C185.225 519.03 186.358 518.816 187.359 518.387C188.36 517.934 189.147 517.326 189.719 516.563C190.316 515.776 190.614 514.894 190.614 513.916C190.614 513.249 190.494 512.677 190.256 512.2C190.041 511.723 189.719 511.306 189.29 510.948C188.885 510.59 188.384 510.28 187.788 510.018C187.216 509.732 186.56 509.482 185.821 509.267C185.106 509.029 184.331 508.79 183.497 508.552C182.352 508.218 181.327 507.872 180.421 507.515C179.539 507.157 178.776 506.728 178.132 506.227C177.512 505.727 177.035 505.131 176.702 504.439C176.392 503.748 176.237 502.901 176.237 501.9C176.237 500.922 176.428 500.028 176.809 499.218C177.214 498.407 177.775 497.704 178.49 497.108C179.205 496.512 180.028 496.059 180.958 495.749C181.911 495.415 182.936 495.248 184.033 495.248C185.321 495.248 186.441 495.439 187.395 495.82C188.372 496.178 189.231 496.69 189.97 497.358C190.709 498.026 191.376 498.812 191.973 499.718L190.649 501.006C190.125 500.195 189.541 499.492 188.897 498.896C188.253 498.3 187.526 497.847 186.715 497.537C185.929 497.203 185.034 497.036 184.033 497.036C182.889 497.036 181.864 497.251 180.958 497.68C180.075 498.085 179.372 498.657 178.847 499.396C178.323 500.136 178.061 500.982 178.061 501.936C178.061 502.603 178.18 503.187 178.418 503.688C178.681 504.189 179.074 504.63 179.599 505.011C180.147 505.369 180.826 505.703 181.637 506.013C182.471 506.299 183.461 506.585 184.605 506.871C185.774 507.157 186.835 507.491 187.788 507.872C188.742 508.254 189.564 508.707 190.256 509.231C190.971 509.756 191.508 510.388 191.865 511.127C192.247 511.866 192.437 512.76 192.437 513.809C192.437 515.144 192.068 516.348 191.329 517.421C190.59 518.47 189.576 519.305 188.289 519.924C187.001 520.521 185.535 520.819 183.89 520.819ZM204.696 520.819C202.908 520.819 201.31 520.413 199.904 519.603C198.521 518.792 197.436 517.659 196.649 516.205C195.863 514.751 195.469 513.058 195.469 511.127C195.469 509.72 195.684 508.433 196.113 507.264C196.566 506.096 197.186 505.083 197.973 504.225C198.759 503.342 199.701 502.663 200.798 502.186C201.918 501.709 203.134 501.471 204.446 501.471C205.733 501.471 206.89 501.685 207.915 502.114C208.964 502.544 209.846 503.164 210.561 503.974C211.276 504.761 211.813 505.703 212.171 506.799C212.528 507.872 212.683 509.064 212.635 510.376L212.6 511.341H196.792V509.696H211.634L210.847 510.34V509.482C210.847 508.528 210.609 507.574 210.132 506.621C209.679 505.667 208.976 504.868 208.022 504.225C207.068 503.581 205.864 503.259 204.41 503.259C203.051 503.259 201.835 503.557 200.762 504.153C199.713 504.749 198.879 505.619 198.259 506.764C197.663 507.908 197.365 509.327 197.365 511.019C197.365 512.641 197.663 514.059 198.259 515.275C198.855 516.467 199.713 517.397 200.834 518.065C201.978 518.709 203.373 519.03 205.018 519.03C205.9 519.03 206.806 518.887 207.736 518.601C208.666 518.315 209.715 517.695 210.883 516.742L211.813 518.065C211.288 518.565 210.668 519.03 209.953 519.46C209.238 519.865 208.439 520.199 207.557 520.461C206.675 520.699 205.721 520.819 204.696 520.819ZM221.407 520.461L213.575 501.864H215.649L222.301 518.279L221.55 518.78L229.06 501.864H231.063L222.623 520.461H221.407ZM241.193 520.819C239.404 520.819 237.807 520.413 236.4 519.603C235.017 518.792 233.933 517.659 233.146 516.205C232.359 514.751 231.966 513.058 231.966 511.127C231.966 509.72 232.18 508.433 232.609 507.264C233.062 506.096 233.682 505.083 234.469 504.225C235.256 503.342 236.198 502.663 237.294 502.186C238.415 501.709 239.631 501.471 240.942 501.471C242.23 501.471 243.386 501.685 244.411 502.114C245.46 502.544 246.342 503.164 247.058 503.974C247.773 504.761 248.309 505.703 248.667 506.799C249.025 507.872 249.18 509.064 249.132 510.376L249.096 511.341H233.289V509.696H248.131L247.344 510.34V509.482C247.344 508.528 247.105 507.574 246.629 506.621C246.176 505.667 245.472 504.868 244.519 504.225C243.565 503.581 242.361 503.259 240.906 503.259C239.547 503.259 238.332 503.557 237.259 504.153C236.21 504.749 235.375 505.619 234.755 506.764C234.159 507.908 233.861 509.327 233.861 511.019C233.861 512.641 234.159 514.059 234.755 515.275C235.351 516.467 236.21 517.397 237.33 518.065C238.475 518.709 239.869 519.03 241.514 519.03C242.397 519.03 243.303 518.887 244.232 518.601C245.162 518.315 246.211 517.695 247.38 516.742L248.309 518.065C247.785 518.565 247.165 519.03 246.45 519.46C245.734 519.865 244.936 520.199 244.054 520.461C243.171 520.699 242.218 520.819 241.193 520.819ZM252.745 520.461V501.864H254.462L254.641 506.013H254.391C254.653 505.226 255.058 504.487 255.606 503.795C256.155 503.104 256.822 502.544 257.609 502.114C258.42 501.685 259.35 501.471 260.399 501.471C260.804 501.471 261.174 501.507 261.507 501.578C261.865 501.626 262.187 501.685 262.473 501.757L261.937 503.831C261.603 503.688 261.281 503.593 260.971 503.545C260.661 503.497 260.387 503.473 260.148 503.473C259.195 503.473 258.36 503.64 257.645 503.974C256.954 504.308 256.369 504.773 255.893 505.369C255.44 505.941 255.094 506.597 254.855 507.336C254.641 508.075 254.534 508.85 254.534 509.66V520.461H252.745ZM276.349 520.461V495.427H290.905V497.215H278.137V518.673H290.762V520.461H276.349ZM277.207 508.445V506.656H288.866V508.445H277.207ZM296.017 520.461V501.864H297.734L297.913 506.013H297.662C297.925 505.226 298.33 504.487 298.878 503.795C299.427 503.104 300.094 502.544 300.881 502.114C301.692 501.685 302.622 501.471 303.671 501.471C304.076 501.471 304.445 501.507 304.779 501.578C305.137 501.626 305.459 501.685 305.745 501.757L305.208 503.831C304.875 503.688 304.553 503.593 304.243 503.545C303.933 503.497 303.659 503.473 303.42 503.473C302.467 503.473 301.632 503.64 300.917 503.974C300.225 504.308 299.641 504.773 299.164 505.369C298.711 505.941 298.366 506.597 298.127 507.336C297.913 508.075 297.805 508.85 297.805 509.66V520.461H296.017ZM308.346 520.461V501.864H310.062L310.241 506.013H309.991C310.253 505.226 310.658 504.487 311.207 503.795C311.755 503.104 312.423 502.544 313.21 502.114C314.02 501.685 314.95 501.471 315.999 501.471C316.404 501.471 316.774 501.507 317.108 501.578C317.465 501.626 317.787 501.685 318.073 501.757L317.537 503.831C317.203 503.688 316.881 503.593 316.571 503.545C316.261 503.497 315.987 503.473 315.749 503.473C314.795 503.473 313.961 503.64 313.245 503.974C312.554 504.308 311.97 504.773 311.493 505.369C311.04 505.941 310.694 506.597 310.456 507.336C310.241 508.075 310.134 508.85 310.134 509.66V520.461H308.346ZM327.989 520.819C326.13 520.819 324.473 520.401 323.018 519.567C321.588 518.732 320.455 517.576 319.621 516.098C318.81 514.62 318.405 512.939 318.405 511.055C318.405 509.196 318.81 507.55 319.621 506.12C320.455 504.666 321.588 503.533 323.018 502.722C324.473 501.888 326.13 501.471 327.989 501.471C329.849 501.471 331.494 501.888 332.925 502.722C334.379 503.533 335.511 504.666 336.322 506.12C337.133 507.55 337.538 509.196 337.538 511.055C337.538 512.939 337.133 514.62 336.322 516.098C335.511 517.576 334.379 518.732 332.925 519.567C331.494 520.401 329.849 520.819 327.989 520.819ZM327.989 519.03C329.467 519.03 330.779 518.685 331.923 517.993C333.091 517.302 333.997 516.36 334.641 515.168C335.309 513.976 335.642 512.605 335.642 511.055C335.642 509.553 335.309 508.218 334.641 507.05C333.997 505.858 333.091 504.928 331.923 504.26C330.779 503.593 329.467 503.259 327.989 503.259C326.487 503.259 325.152 503.593 323.984 504.26C322.839 504.928 321.933 505.858 321.266 507.05C320.622 508.218 320.3 509.553 320.3 511.055C320.3 512.605 320.622 513.976 321.266 515.168C321.933 516.36 322.839 517.302 323.984 517.993C325.152 518.685 326.487 519.03 327.989 519.03ZM341.28 520.461V501.864H342.997L343.175 506.013H342.925C343.187 505.226 343.593 504.487 344.141 503.795C344.689 503.104 345.357 502.544 346.144 502.114C346.954 501.685 347.884 501.471 348.933 501.471C349.339 501.471 349.708 501.507 350.042 501.578C350.4 501.626 350.721 501.685 351.007 501.757L350.471 503.831C350.137 503.688 349.815 503.593 349.505 503.545C349.195 503.497 348.921 503.473 348.683 503.473C347.729 503.473 346.895 503.64 346.179 503.974C345.488 504.308 344.904 504.773 344.427 505.369C343.974 505.941 343.628 506.597 343.39 507.336C343.175 508.075 343.068 508.85 343.068 509.66V520.461H341.28Z" fill="black"/>
</svg>
