<svg width="36" height="36" viewBox="0 0 36 36" fill="none" xmlns="http://www.w3.org/2000/svg">
<rect width="36" height="36" rx="18" fill="#7BDA08"/>
<path d="M11.266 25V9.6H17.074C18.13 9.6 19.0907 9.79067 19.956 10.172C20.836 10.5387 21.5987 11.0667 22.244 11.756C22.8893 12.4453 23.388 13.2593 23.74 14.198C24.092 15.1367 24.268 16.1707 24.268 17.3C24.268 18.4293 24.092 19.4707 23.74 20.424C23.388 21.3627 22.8893 22.1767 22.244 22.866C21.6133 23.5407 20.858 24.0687 19.978 24.45C19.098 24.8167 18.13 25 17.074 25H11.266ZM12.982 23.636L12.784 23.328H16.964C17.7707 23.328 18.5113 23.1887 19.186 22.91C19.8753 22.6167 20.462 22.206 20.946 21.678C21.4447 21.1353 21.826 20.4973 22.09 19.764C22.3687 19.0307 22.508 18.2093 22.508 17.3C22.508 16.3907 22.3687 15.5693 22.09 14.836C21.826 14.1027 21.4447 13.472 20.946 12.944C20.4473 12.4013 19.8607 11.9907 19.186 11.712C18.5113 11.4187 17.7707 11.272 16.964 11.272H12.718L12.982 11.008V23.636Z" fill="black"/>
</svg>
