<svg width="56" height="56" viewBox="0 0 56 56" fill="none" xmlns="http://www.w3.org/2000/svg">
<rect x="4" y="4" width="48" height="48" rx="24" fill="#FF2614" fill-opacity="0.27"/>
<rect x="4" y="4" width="48" height="48" rx="24" stroke="#FFDEDB" stroke-width="8"/>
<g clip-path="url(#clip0_3597_2410)">
<path d="M28 22V27.1429" stroke="#FF2614" stroke-width="1.5" stroke-linecap="round" stroke-linejoin="round"/>
<path d="M27.9997 33.1428C28.4731 33.1428 28.8569 32.759 28.8569 32.2856C28.8569 31.8122 28.4731 31.4285 27.9997 31.4285C27.5263 31.4285 27.1426 31.8122 27.1426 32.2856C27.1426 32.759 27.5263 33.1428 27.9997 33.1428Z" stroke="#FF2614" stroke-width="1.5" stroke-linecap="round" stroke-linejoin="round"/>
<path d="M26.7023 17.3934L17.3927 26.703C16.6764 27.4193 16.6764 28.5807 17.3927 29.297L26.7023 38.6066C27.4186 39.3229 28.58 39.3229 29.2964 38.6066L38.6059 29.297C39.3223 28.5807 39.3223 27.4193 38.6059 26.703L29.2964 17.3934C28.58 16.6771 27.4186 16.6771 26.7023 17.3934Z" stroke="#FF2614" stroke-width="1.5" stroke-linecap="round" stroke-linejoin="round"/>
</g>
<defs>
<clipPath id="clip0_3597_2410">
<rect width="24" height="24" fill="white" transform="translate(16 16)"/>
</clipPath>
</defs>
</svg>
