<svg width="24" height="24" viewBox="0 0 24 24" fill="none" xmlns="http://www.w3.org/2000/svg">
<path d="M21.0687 9.25708C21.7202 9.83994 22.2687 10.4057 22.6802 10.8514C22.9645 11.1664 23.1218 11.5756 23.1218 11.9999C23.1218 12.4243 22.9645 12.8335 22.6802 13.1485C20.8802 15.0857 16.783 18.8571 12.0002 18.8571H11.3145" stroke="#888888" stroke-width="1.5" stroke-linecap="round" stroke-linejoin="round"/>
<path d="M6.63437 17.3657C4.6486 16.2535 2.85433 14.8297 1.32008 13.1485C1.03579 12.8335 0.878418 12.4243 0.878418 12C0.878418 11.5756 1.03579 11.1664 1.32008 10.8514C3.12008 8.91425 7.21723 5.14282 12.0001 5.14282C13.8854 5.18223 15.7306 5.6951 17.3658 6.63425" stroke="#888888" stroke-width="1.5" stroke-linecap="round" stroke-linejoin="round"/>
<path d="M21.4287 2.57141L2.57153 21.4286" stroke="#888888" stroke-width="1.5" stroke-linecap="round" stroke-linejoin="round"/>
<path d="M9.58296 14.4171C8.9391 13.7771 8.57536 12.9078 8.57153 12C8.57153 11.0907 8.93276 10.2186 9.57574 9.57562C10.2187 8.93263 11.0908 8.57141 12.0001 8.57141C12.908 8.57524 13.7772 8.93898 14.4172 9.58284" stroke="#888888" stroke-width="1.5" stroke-linecap="round" stroke-linejoin="round"/>
<path d="M14.9829 13.7142C14.6778 14.2359 14.2401 14.6676 13.7144 14.9657" stroke="#888888" stroke-width="1.5" stroke-linecap="round" stroke-linejoin="round"/>
</svg>
