<svg width="20" height="20" viewBox="0 0 20 20" fill="none" xmlns="http://www.w3.org/2000/svg">
<g clip-path="url(#clip0_3899_2517)">
<path d="M16.4286 7.14293C16.4286 10.7001 9.99998 19.2858 9.99998 19.2858C9.99998 19.2858 3.57141 10.7001 3.57141 7.14293C3.57141 5.43796 4.24871 3.80283 5.4543 2.59724C6.65989 1.39165 8.29502 0.714355 9.99998 0.714355C11.7049 0.714355 13.3401 1.39165 14.5457 2.59724C15.7513 3.80283 16.4286 5.43796 16.4286 7.14293Z" fill="#F6F6F6" stroke="#6D6D6D" stroke-width="1.5" stroke-linecap="round" stroke-linejoin="round"/>
<path d="M10 9.28571C11.1835 9.28571 12.1429 8.32632 12.1429 7.14286C12.1429 5.95939 11.1835 5 10 5C8.81657 5 7.85718 5.95939 7.85718 7.14286C7.85718 8.32632 8.81657 9.28571 10 9.28571Z" fill="#F6F6F6" stroke="#6D6D6D" stroke-width="1.5" stroke-linecap="round" stroke-linejoin="round"/>
</g>
<defs>
<clipPath id="clip0_3899_2517">
<rect width="20" height="20" fill="white"/>
</clipPath>
</defs>
</svg>
