<svg width="20" height="20" viewBox="0 0 20 20" fill="none" xmlns="http://www.w3.org/2000/svg">
<g clip-path="url(#clip0_2798_9102)">
<path d="M16.4287 7.14293C16.4287 10.7001 10.0001 19.2858 10.0001 19.2858C10.0001 19.2858 3.57153 10.7001 3.57153 7.14293C3.57153 5.43796 4.24883 3.80283 5.45442 2.59724C6.66001 1.39165 8.29514 0.714355 10.0001 0.714355C11.7051 0.714355 13.3402 1.39165 14.5458 2.59724C15.7514 3.80283 16.4287 5.43796 16.4287 7.14293V7.14293Z" stroke="#5DAF01" stroke-width="1.5" stroke-linecap="round" stroke-linejoin="round"/>
<path d="M10 9.28571C11.1835 9.28571 12.1429 8.32632 12.1429 7.14286C12.1429 5.95939 11.1835 5 10 5C8.81657 5 7.85718 5.95939 7.85718 7.14286C7.85718 8.32632 8.81657 9.28571 10 9.28571Z" stroke="#5DAF01" stroke-width="1.5" stroke-linecap="round" stroke-linejoin="round"/>
</g>
<defs>
<clipPath id="clip0_2798_9102">
<rect width="20" height="20" fill="white"/>
</clipPath>
</defs>
</svg>
