<svg width="32" height="32" viewBox="0 0 32 32" fill="none" xmlns="http://www.w3.org/2000/svg">
<ellipse cx="16" cy="16" rx="16" ry="16" fill="#7BDA08"/>
<path d="M9.09867 24.4163V20.7532L15.4837 24.5689L12.4176 26.4004L9.09867 24.4163ZM16.2634 24.4163V20.448L17.9281 19.4559L19.3295 18.6164V26.2478L16.2634 24.4163ZM19.8458 18.6164L21.2471 19.4559L22.9119 20.448V24.4163L19.8458 26.2478V18.6164ZM9.36208 20.2953L10.7634 19.4559L12.4281 18.4638L14.0929 19.4559L15.7577 20.448V24.111L9.3726 20.2953H9.36208ZM5.77968 18.1477L8.84578 16.3162L11.9119 18.1477L10.5105 18.9871L8.84578 19.9792L5.77968 18.1477ZM14.3458 18.9871L12.9445 18.1477L19.3295 14.332V17.995L17.6647 18.9871L16 19.9792L14.3352 18.9871H14.3458ZM19.8458 14.332L22.9119 16.1635V19.8266L21.5105 18.9871L19.8458 17.995V14.332ZM23.4281 16.1635L26.4942 14.332V17.995L23.4281 19.8266V16.1635ZM5.51627 14.0268L8.58237 12.1952V15.8583L5.51627 17.6898V14.0268ZM9.09867 15.8583V12.1952L10.5 13.0347L12.1647 14.0268V17.6898L9.09867 15.8583ZM12.681 14.0268L14.3458 13.0347L16.0105 12.0426L17.6753 13.0347L19.0766 13.8741L12.6916 17.6898V14.0268H12.681ZM20.0986 13.8741L21.5 13.0347L23.1647 12.0426L26.2308 13.8741L23.1647 15.7056L20.0986 13.8741ZM17.9281 12.5659L16.2634 11.5738V7.9108L22.6485 11.7265L21.2471 12.5659L19.5824 13.558L17.9176 12.5659H17.9281ZM10.7529 12.5659L9.08813 11.5738V7.60555L12.1542 5.77403V13.4054L10.7529 12.5659ZM12.681 5.77403L15.7471 7.60555V11.5738L14.0824 12.5659L12.681 13.4054V5.77403ZM16.5163 7.45292L19.5824 5.62141L22.9119 7.60555V11.2686L16.5268 7.45292H16.5163ZM19.5824 5L16 7.13677L12.4176 5L8.58237 7.2894V11.5738L5 13.7106V18.3003L8.58237 20.4371V24.7106L12.4176 27L16 24.8632L19.5824 27L23.4176 24.7106V20.4371L27 18.3003V13.7106L23.4176 11.5738V7.2894L19.5824 5Z" fill="black"/>
</svg>
