<svg width="32" height="32" viewBox="0 0 32 32" fill="none" xmlns="http://www.w3.org/2000/svg">
<rect width="32" height="32" rx="4" fill="#F6F6F6"/>
<g clip-path="url(#clip0_2951_3041)">
<path d="M10.2856 16V12.2429C10.2968 11.5043 10.4536 10.7753 10.747 10.0974C11.0404 9.41959 11.4647 8.80632 11.9955 8.29274C12.5263 7.77916 13.1533 7.37537 13.8404 7.10451C14.5276 6.83365 15.2614 6.70104 15.9999 6.71428V6.71428C16.7384 6.70104 17.4723 6.83365 18.1594 7.10451C18.8466 7.37537 19.4735 7.77916 20.0044 8.29274C20.5352 8.80632 20.9595 9.41959 21.2529 10.0974C21.5463 10.7753 21.7031 11.5043 21.7142 12.2429V16" stroke="#6D6D6D" stroke-width="1.5" stroke-linecap="round" stroke-linejoin="round"/>
<path d="M8.14293 13.8572H9.5715C9.76094 13.8572 9.94262 13.9324 10.0766 14.0664C10.2105 14.2003 10.2858 14.382 10.2858 14.5715V18.8572C10.2858 19.0466 10.2105 19.2283 10.0766 19.3623C9.94262 19.4962 9.76094 19.5715 9.5715 19.5715H8.14293C7.76405 19.5715 7.40068 19.421 7.13277 19.153C6.86487 18.8851 6.71436 18.5218 6.71436 18.1429V15.2857C6.71436 14.9069 6.86487 14.5435 7.13277 14.2756C7.40068 14.0077 7.76405 13.8572 8.14293 13.8572V13.8572Z" stroke="#6D6D6D" stroke-width="1.5" stroke-linecap="round" stroke-linejoin="round"/>
<path d="M23.8571 19.5714H22.4285C22.2391 19.5714 22.0574 19.4962 21.9234 19.3622C21.7895 19.2282 21.7142 19.0466 21.7142 18.8571V14.5714C21.7142 14.382 21.7895 14.2003 21.9234 14.0663C22.0574 13.9324 22.2391 13.8571 22.4285 13.8571H23.8571C24.236 13.8571 24.5993 14.0076 24.8672 14.2755C25.1351 14.5435 25.2856 14.9068 25.2856 15.2857V18.1428C25.2856 18.5217 25.1351 18.8851 24.8672 19.153C24.5993 19.4209 24.236 19.5714 23.8571 19.5714V19.5714Z" stroke="#6D6D6D" stroke-width="1.5" stroke-linecap="round" stroke-linejoin="round"/>
<path d="M18.8574 23.5C19.6152 23.5 20.3419 23.199 20.8777 22.6632C21.4135 22.1274 21.7146 21.4006 21.7146 20.6429V17.4286" stroke="#6D6D6D" stroke-width="1.5" stroke-linecap="round" stroke-linejoin="round"/>
<path d="M18.8574 23.4999C18.8574 23.9735 18.6692 24.4278 18.3343 24.7626C17.9994 25.0975 17.5452 25.2857 17.0716 25.2857H14.9288C14.4552 25.2857 14.001 25.0975 13.6661 24.7626C13.3312 24.4278 13.1431 23.9735 13.1431 23.4999C13.1431 23.0263 13.3312 22.5721 13.6661 22.2373C14.001 21.9024 14.4552 21.7142 14.9288 21.7142H17.0716C17.5452 21.7142 17.9994 21.9024 18.3343 22.2373C18.6692 22.5721 18.8574 23.0263 18.8574 23.4999Z" stroke="#6D6D6D" stroke-width="1.5" stroke-linecap="round" stroke-linejoin="round"/>
</g>
<defs>
<clipPath id="clip0_2951_3041">
<rect width="20" height="20" fill="white" transform="translate(6 6)"/>
</clipPath>
</defs>
</svg>
