<svg width="24" height="24" viewBox="0 0 24 24" fill="none" xmlns="http://www.w3.org/2000/svg">
<path d="M22.6796 10.8515C22.9639 11.1665 23.1213 11.5757 23.1213 12C23.1213 12.4244 22.9639 12.8336 22.6796 13.1486C20.8796 15.0857 16.7825 18.8572 11.9996 18.8572C7.21674 18.8572 3.1196 15.0857 1.3196 13.1486C1.0353 12.8336 0.87793 12.4244 0.87793 12C0.87793 11.5757 1.0353 11.1665 1.3196 10.8515C3.1196 8.91431 7.21674 5.14288 11.9996 5.14288C16.7825 5.14288 20.8796 8.91431 22.6796 10.8515Z" stroke="#000001" stroke-width="1.5" stroke-linecap="round" stroke-linejoin="round"/>
<path d="M11.9999 15.4286C13.8934 15.4286 15.4284 13.8936 15.4284 12C15.4284 10.1065 13.8934 8.57147 11.9999 8.57147C10.1063 8.57147 8.57129 10.1065 8.57129 12C8.57129 13.8936 10.1063 15.4286 11.9999 15.4286Z" stroke="#000001" stroke-width="1.5" stroke-linecap="round" stroke-linejoin="round"/>
</svg>
