<svg width="56" height="56" viewBox="0 0 56 56" fill="none" xmlns="http://www.w3.org/2000/svg">
<rect x="4" y="4" width="48" height="48" rx="24" fill="#FFBB38" fill-opacity="0.26"/>
<rect x="4" y="4" width="48" height="48" rx="24" stroke="#FFF6E4" stroke-width="8"/>
<g clip-path="url(#clip0_3597_1361)">
<path d="M28 24.5714V29.7143" stroke="#FCC400" stroke-width="1.5" stroke-linecap="round" stroke-linejoin="round"/>
<path d="M27.9997 35.7143C28.4731 35.7143 28.8569 35.3305 28.8569 34.8571C28.8569 34.3838 28.4731 34 27.9997 34C27.5263 34 27.1426 34.3838 27.1426 34.8571C27.1426 35.3305 27.5263 35.7143 27.9997 35.7143Z" stroke="#FCC400" stroke-width="1.5" stroke-linecap="round" stroke-linejoin="round"/>
<path d="M29.5257 17.7999C29.3818 17.5191 29.1633 17.2835 28.8941 17.1189C28.6249 16.9544 28.3155 16.8673 28 16.8673C27.6845 16.8673 27.3751 16.9544 27.1059 17.1189C26.8367 17.2835 26.6181 17.5191 26.4743 17.7999L17.0457 36.6571C16.9142 36.9181 16.8516 37.2083 16.8638 37.5003C16.876 37.7922 16.9627 38.0762 17.1156 38.3253C17.2684 38.5743 17.4824 38.7802 17.7372 38.9233C17.992 39.0663 18.2792 39.1419 18.5714 39.1428H37.4285C37.7208 39.1419 38.0079 39.0663 38.2627 38.9233C38.5175 38.7802 38.7315 38.5743 38.8844 38.3253C39.0372 38.0762 39.1239 37.7922 39.1361 37.5003C39.1484 37.2083 39.0858 36.9181 38.9543 36.6571L29.5257 17.7999Z" stroke="#FCC400" stroke-width="1.5" stroke-linecap="round" stroke-linejoin="round"/>
</g>
<defs>
<clipPath id="clip0_3597_1361">
<rect width="24" height="24" fill="white" transform="translate(16 16)"/>
</clipPath>
</defs>
</svg>
