<svg width="20" height="20" viewBox="0 0 20 20" fill="none" xmlns="http://www.w3.org/2000/svg">
<g clip-path="url(#clip0_5762_5124)">
<path d="M15.7143 7.85742H4.28575C3.49677 7.85742 2.85718 8.49702 2.85718 9.28599V17.8574C2.85718 18.6464 3.49677 19.286 4.28575 19.286H15.7143C16.5033 19.286 17.1429 18.6464 17.1429 17.8574V9.28599C17.1429 8.49702 16.5033 7.85742 15.7143 7.85742Z" stroke="#5DAF01" stroke-width="1.5" stroke-linecap="round" stroke-linejoin="round"/>
<path d="M13.5286 2.18583C13.0686 1.71727 12.5193 1.34565 11.9132 1.09292C11.3072 0.840194 10.6566 0.711488 10 0.714404C8.67392 0.714404 7.40215 1.24119 6.46447 2.17887C5.52678 3.11655 5 4.38832 5 5.7144V7.85726" stroke="#5DAF01" stroke-width="1.5" stroke-linecap="round" stroke-linejoin="round"/>
<path d="M9.99993 14.286C10.3944 14.286 10.7142 13.9662 10.7142 13.5717C10.7142 13.1772 10.3944 12.8574 9.99993 12.8574C9.60544 12.8574 9.28564 13.1772 9.28564 13.5717C9.28564 13.9662 9.60544 14.286 9.99993 14.286Z" stroke="#5DAF01" stroke-width="1.5" stroke-linecap="round" stroke-linejoin="round"/>
</g>
<defs>
<clipPath id="clip0_5762_5124">
<rect width="20" height="20" fill="white"/>
</clipPath>
</defs>
</svg>
