<svg width="20" height="20" viewBox="0 0 20 20" fill="none" xmlns="http://www.w3.org/2000/svg">
<path d="M7.50007 0.714355H1.42864C1.03415 0.714355 0.714355 1.03415 0.714355 1.42864V7.50007C0.714355 7.89456 1.03415 8.21436 1.42864 8.21436H7.50007C7.89456 8.21436 8.21436 7.89456 8.21436 7.50007V1.42864C8.21436 1.03415 7.89456 0.714355 7.50007 0.714355Z" stroke="#5DAF01" stroke-width="1.5" stroke-linecap="round" stroke-linejoin="round"/>
<path d="M18.5716 0.714355H12.5002C12.1057 0.714355 11.7859 1.03415 11.7859 1.42864V7.50007C11.7859 7.89456 12.1057 8.21436 12.5002 8.21436H18.5716C18.9661 8.21436 19.2859 7.89456 19.2859 7.50007V1.42864C19.2859 1.03415 18.9661 0.714355 18.5716 0.714355Z" stroke="#5DAF01" stroke-width="1.5" stroke-linecap="round" stroke-linejoin="round"/>
<path d="M7.50007 11.7856H1.42864C1.03415 11.7856 0.714355 12.1054 0.714355 12.4999V18.5714C0.714355 18.9658 1.03415 19.2856 1.42864 19.2856H7.50007C7.89456 19.2856 8.21436 18.9658 8.21436 18.5714V12.4999C8.21436 12.1054 7.89456 11.7856 7.50007 11.7856Z" stroke="#5DAF01" stroke-width="1.5" stroke-linecap="round" stroke-linejoin="round"/>
<path d="M18.5716 11.7856H12.5002C12.1057 11.7856 11.7859 12.1054 11.7859 12.4999V18.5714C11.7859 18.9658 12.1057 19.2856 12.5002 19.2856H18.5716C18.9661 19.2856 19.2859 18.9658 19.2859 18.5714V12.4999C19.2859 12.1054 18.9661 11.7856 18.5716 11.7856Z" stroke="#5DAF01" stroke-width="1.5" stroke-linecap="round" stroke-linejoin="round"/>
<path d="M0.714355 5H8.21436" stroke="#5DAF01" stroke-width="1.5" stroke-linecap="round" stroke-linejoin="round"/>
<path d="M11.7859 5H19.2859" stroke="#5DAF01" stroke-width="1.5" stroke-linecap="round" stroke-linejoin="round"/>
<path d="M11.7859 16.0713H19.2859" stroke="#5DAF01" stroke-width="1.5" stroke-linecap="round" stroke-linejoin="round"/>
<path d="M0.714355 16.0713H8.21436" stroke="#5DAF01" stroke-width="1.5" stroke-linecap="round" stroke-linejoin="round"/>
</svg>
