<svg width="66" height="66" viewBox="0 0 66 66" fill="none" xmlns="http://www.w3.org/2000/svg">
<g filter="url(#filter0_d_2909_1158)">
<rect x="17.0293" y="1.6062" width="48" height="48" rx="10" transform="rotate(15 17.0293 1.6062)" fill="#7BDA08"/>
<g filter="url(#filter1_b_2909_1158)">
<rect x="2" y="15" width="48" height="48" rx="10" fill="white" fill-opacity="0.6"/>
<rect x="2.5" y="15.5" width="47" height="47" rx="9.5" stroke="white" stroke-opacity="0.6"/>
<g clip-path="url(#clip0_2909_1158)">
<path d="M31.9998 27.8572H19.9998C17.1595 27.8572 14.8569 30.1597 14.8569 33V45C14.8569 47.8404 17.1595 50.1429 19.9998 50.1429H31.9998C34.8401 50.1429 37.1426 47.8404 37.1426 45V33C37.1426 30.1597 34.8401 27.8572 31.9998 27.8572Z" stroke="#5DAF01" stroke-width="1.5" stroke-linecap="round" stroke-linejoin="round"/>
<path d="M24.2855 45.0001L20.8569 41.5715H31.1426" stroke="#5DAF01" stroke-width="1.5" stroke-linecap="round" stroke-linejoin="round"/>
<path d="M27.7141 33L31.1426 36.4286H20.8569" stroke="#5DAF01" stroke-width="1.5" stroke-linecap="round" stroke-linejoin="round"/>
</g>
</g>
</g>
<defs>
<filter id="filter0_d_2909_1158" x="0" y="0.606201" width="65.3936" height="65.3938" filterUnits="userSpaceOnUse" color-interpolation-filters="sRGB">
<feFlood flood-opacity="0" result="BackgroundImageFix"/>
<feColorMatrix in="SourceAlpha" type="matrix" values="0 0 0 0 0 0 0 0 0 0 0 0 0 0 0 0 0 0 127 0" result="hardAlpha"/>
<feOffset dy="1"/>
<feGaussianBlur stdDeviation="1"/>
<feColorMatrix type="matrix" values="0 0 0 0 0.0627451 0 0 0 0 0.0941176 0 0 0 0 0.156863 0 0 0 0.05 0"/>
<feBlend mode="normal" in2="BackgroundImageFix" result="effect1_dropShadow_2909_1158"/>
<feBlend mode="normal" in="SourceGraphic" in2="effect1_dropShadow_2909_1158" result="shape"/>
</filter>
<filter id="filter1_b_2909_1158" x="-14" y="-1" width="80" height="80" filterUnits="userSpaceOnUse" color-interpolation-filters="sRGB">
<feFlood flood-opacity="0" result="BackgroundImageFix"/>
<feGaussianBlur in="BackgroundImageFix" stdDeviation="8"/>
<feComposite in2="SourceAlpha" operator="in" result="effect1_backgroundBlur_2909_1158"/>
<feBlend mode="normal" in="SourceGraphic" in2="effect1_backgroundBlur_2909_1158" result="shape"/>
</filter>
<clipPath id="clip0_2909_1158">
<rect width="24" height="24" fill="white" transform="translate(14 27)"/>
</clipPath>
</defs>
</svg>
