<svg width="32" height="32" viewBox="0 0 32 32" fill="none" xmlns="http://www.w3.org/2000/svg">
<path d="M1.14307 8.00003L1.14307 24C1.14307 27.7871 4.21311 30.8572 8.00021 30.8572L24.0002 30.8572C27.7873 30.8572 30.8574 27.7871 30.8574 24L30.8574 8.00003C30.8574 4.21294 27.7873 1.14289 24.0002 1.14289L8.00021 1.14289C4.21311 1.14289 1.14307 4.21294 1.14307 8.00003Z" fill="#D5FF96"/>
<path d="M24.0001 18.2857L19.4287 22.8572L19.4287 9.14289" fill="#D5FF96"/>
<path d="M24.0001 18.2857L19.4287 22.8572L19.4287 9.14289" stroke="#5DAF01" stroke-width="1.5" stroke-linecap="round" stroke-linejoin="round"/>
<path d="M8 13.7143L12.5714 9.14289L12.5714 22.8572" fill="#D5FF96"/>
<path d="M8 13.7143L12.5714 9.14289L12.5714 22.8572" stroke="#5DAF01" stroke-width="1.5" stroke-linecap="round" stroke-linejoin="round"/>
</svg>
