<svg width="34" height="32" viewBox="0 0 34 32" fill="none" xmlns="http://www.w3.org/2000/svg">
<g clip-path="url(#clip0_4348_1134)">
<path d="M28.3784 27.3122C34.6261 21.0646 34.6261 10.9352 28.3784 4.68754C22.1308 -1.56009 12.0014 -1.56009 5.75374 4.68754C-0.493888 10.9352 -0.493888 21.0646 5.75374 27.3122C12.0014 33.5598 22.1308 33.5599 28.3784 27.3122Z" fill="#FED428"/>
<path opacity="0.6" d="M12.9437 0.507338C13.7395 0.302086 14.5392 0.160733 15.3331 0.0794067C8.18025 3.12721 4.1333 11.0236 6.1316 18.7825C8.13184 26.5415 15.4919 31.4985 23.2256 30.7085C22.4918 31.0222 21.725 31.2836 20.9272 31.4888C12.3724 33.6943 3.64921 28.5456 1.44371 19.9889C-0.76178 11.4322 4.38889 2.71283 12.9437 0.507338Z" fill="#FFB71D"/>
<path d="M18.9717 1.77759C18.9717 1.77759 30.5413 1.77759 31.8329 15.5256C29.6061 10.1039 27.6852 5.2146 18.9717 1.77759Z" fill="#FAE64B"/>
<path d="M21.2095 9.42997C21.44 9.30605 21.6975 9.24408 21.9783 9.24408C22.0422 9.24408 22.1099 9.24796 22.1758 9.25377C22.4546 9.28281 22.7025 9.36027 22.9135 9.48806C23.1226 9.61393 23.3027 9.79401 23.446 10.0186L23.5932 10.251L23.7403 10.0167C23.8991 9.76302 24.1024 9.56745 24.3464 9.43772C24.5381 9.33509 24.7608 9.26926 25.0048 9.24215C25.0706 9.2344 25.1364 9.23053 25.2023 9.23053C25.5489 9.23053 25.8723 9.32735 26.1375 9.51324C26.4028 9.69913 26.6081 9.97602 26.7339 10.311C26.8075 10.5105 26.8385 10.7235 26.8249 10.9481C26.7804 11.6916 26.2808 12.3558 25.9865 12.6869C25.4985 13.2349 24.9118 13.6957 24.3464 14.1411L24.1838 14.2689C24.1141 14.3231 24.0463 14.3773 23.9804 14.4277C23.932 14.4645 23.8856 14.4993 23.8352 14.5361C23.7733 14.5806 23.6435 14.6794 23.6435 14.6794C23.6397 14.6794 23.6319 14.6833 23.6087 14.6833C23.5777 14.6833 23.5758 14.6813 23.5699 14.6775C23.5022 14.6232 23.4325 14.5729 23.3666 14.5226C23.3202 14.4877 23.2737 14.4528 23.2272 14.4161C23.1962 14.3909 23.1633 14.3676 23.1343 14.3463C23.0994 14.3192 23.0646 14.2941 23.0316 14.2689L22.869 14.145L22.8612 14.1392C22.2958 13.6996 21.7091 13.2465 21.2212 12.7043C20.9249 12.3771 20.4214 11.7149 20.373 10.9713C20.3575 10.7467 20.3885 10.5337 20.4602 10.3342C20.6093 9.92761 20.8707 9.61586 21.2153 9.42997" fill="#963928"/>
<path d="M8.19766 9.39903C8.43002 9.2751 8.69143 9.2112 8.97607 9.20927C9.04191 9.20927 9.10968 9.21314 9.17552 9.21895C9.45822 9.24799 9.70995 9.32738 9.92294 9.45712C10.1359 9.58492 10.316 9.76693 10.4612 9.99542L10.6103 10.2317L10.7575 9.99542C10.9182 9.73789 11.1254 9.54038 11.3713 9.40871C11.565 9.30415 11.7896 9.23831 12.0394 9.2112C12.1071 9.20346 12.173 9.19958 12.2388 9.19958C12.5912 9.19958 12.9185 9.29834 13.1857 9.48616C13.4548 9.67593 13.664 9.95476 13.7898 10.2936C13.8653 10.495 13.8963 10.7119 13.8828 10.9384C13.8382 11.6917 13.3328 12.3655 13.0346 12.6986C12.5409 13.2543 11.9464 13.7209 11.3733 14.1702L11.2087 14.2999C11.139 14.3561 11.0693 14.4103 11.0034 14.4606C10.955 14.4974 10.9066 14.5323 10.8563 14.5691C10.7943 14.6136 10.6626 14.7143 10.6607 14.7143C10.6568 14.7143 10.6491 14.7182 10.6239 14.7182C10.5929 14.7182 10.591 14.7162 10.5852 14.7124C10.5155 14.6581 10.4477 14.6059 10.3799 14.5555C10.3334 14.5207 10.285 14.4839 10.2386 14.449C10.2056 14.4238 10.1747 14.4006 10.1437 14.3774C10.1069 14.3503 10.074 14.3251 10.0391 14.298L9.87453 14.1721L9.86485 14.1644C9.2917 13.719 8.69917 13.2601 8.20347 12.7102C7.90334 12.3771 7.39408 11.7071 7.34373 10.9558C7.32824 10.7293 7.35923 10.5124 7.43281 10.311C7.58384 9.90054 7.84718 9.58298 8.19766 9.39516" fill="#963928"/>
<path d="M14.6631 23.8403V26.0148C14.6631 27.3334 15.7319 28.4023 17.0506 28.4023H17.1145C18.4331 28.4023 19.502 27.3334 19.502 26.0148V23.9119C18.8436 24.1694 18.0749 24.3244 17.1764 24.3244C16.1986 24.3244 15.3698 24.1423 14.6611 23.8403H14.6631Z" fill="#FA5454"/>
<path d="M16.9866 23.7551C16.9866 23.7551 17.0505 23.9855 17.097 24.3302C17.1221 24.5025 17.1434 24.7039 17.157 24.9188C17.1725 25.1337 17.1802 25.3642 17.1802 25.5946C17.1802 25.825 17.1725 26.0554 17.157 26.2704C17.1434 26.4853 17.1221 26.6867 17.097 26.859C17.0505 27.2037 16.9866 27.4341 16.9866 27.4341C16.9866 27.4341 16.9208 27.2037 16.8762 26.859C16.8511 26.6867 16.8298 26.4853 16.8162 26.2704C16.8007 26.0554 16.793 25.825 16.793 25.5946C16.793 25.3642 16.8026 25.1337 16.8162 24.9188C16.8298 24.7039 16.8511 24.5025 16.8762 24.3302C16.9227 23.9855 16.9866 23.7551 16.9866 23.7551Z" fill="#CC3A3A"/>
<path d="M10.7303 18.8948C10.7303 18.8948 10.7632 18.9607 10.8271 19.0827C10.8871 19.2047 10.9936 19.3789 11.1156 19.5958C11.2415 19.8107 11.4119 20.0625 11.6017 20.3355C11.7972 20.6066 12.0354 20.8932 12.3026 21.1759C12.839 21.7451 13.5303 22.2641 14.3455 22.5971L14.4984 22.6591C14.5526 22.6765 14.6049 22.694 14.6572 22.7133L14.816 22.7695L14.9806 22.8159L15.1452 22.8624L15.3156 22.8973C15.4279 22.9263 15.5402 22.9534 15.6583 22.9689C16.125 23.0444 16.611 23.1006 17.1164 23.0948H17.1628L17.1745 23.0967H17.1803C17.1803 23.0967 17.1164 23.0967 17.1512 23.0967H17.1783L17.2868 23.0948L17.5036 23.0909C17.5714 23.089 17.6547 23.0909 17.7128 23.0851L17.8812 23.0715C18.0981 23.058 18.3517 23.0328 18.5802 22.996C18.8126 22.9573 19.0392 22.9108 19.258 22.8547C19.4768 22.7946 19.6859 22.723 19.8892 22.6455C20.292 22.4829 20.6637 22.2776 20.9987 22.0356C21.3337 21.7936 21.6319 21.5186 21.8894 21.2301C22.145 20.9416 22.3716 20.6492 22.5555 20.3703C22.7318 20.0896 22.8905 19.832 23.0067 19.6113C23.119 19.3886 23.2158 19.2105 23.2701 19.0846C23.3262 18.9587 23.3572 18.8929 23.3572 18.8929L23.4927 18.9007C23.4927 18.9007 23.4889 18.9762 23.4734 19.1117C23.4559 19.2473 23.4269 19.4467 23.3727 19.6965C23.2604 20.1922 23.0609 20.9067 22.6059 21.6658C22.3793 22.0433 22.0889 22.4267 21.7287 22.783C21.3686 23.1374 20.9348 23.4607 20.4449 23.7183C19.955 23.9758 19.4109 24.1656 18.8455 24.2818C18.2801 24.3999 17.6876 24.4483 17.1067 24.4502C15.9391 24.4405 14.756 24.1888 13.782 23.6621C13.296 23.4027 12.8622 23.0793 12.5001 22.7288C12.1361 22.3783 11.8379 22.0007 11.6017 21.629C11.1253 20.8854 10.893 20.1825 10.7574 19.6926C10.6257 19.1989 10.5986 18.9045 10.5986 18.9045L10.7322 18.889L10.7303 18.8948Z" fill="#963928"/>
</g>
<defs>
<clipPath id="clip0_4348_1134">
<rect width="32.1317" height="32" fill="white" transform="translate(0.93457)"/>
</clipPath>
</defs>
</svg>
