<svg width="34" height="32" viewBox="0 0 34 32" fill="none" xmlns="http://www.w3.org/2000/svg">
<g clip-path="url(#clip0_4348_728)">
<path d="M28.3784 27.3122C34.6261 21.0646 34.6261 10.9352 28.3784 4.68754C22.1308 -1.56009 12.0014 -1.56009 5.75374 4.68754C-0.493888 10.9352 -0.493888 21.0646 5.75374 27.3122C12.0014 33.5598 22.1308 33.5599 28.3784 27.3122Z" fill="#FED428"/>
<path opacity="0.6" d="M12.944 0.507338C13.7398 0.302086 14.5395 0.160733 15.3334 0.0794067C8.18058 3.12721 4.13362 11.0236 6.13193 18.7825C8.13217 26.5415 15.4922 31.4985 23.226 30.7085C22.4921 31.0222 21.7253 31.2836 20.9275 31.4888C12.3728 33.6943 3.64954 28.5456 1.44404 19.9889C-0.759513 11.4341 4.38922 2.71283 12.944 0.507338Z" fill="#FFB71D"/>
<path d="M18.9717 1.77759C18.9717 1.77759 30.5413 1.77759 31.8329 15.5256C29.6061 10.1039 27.6852 5.2146 18.9717 1.77759Z" fill="#FAE64B"/>
<path d="M25.7929 12.597C26.0115 11.4597 25.2667 10.3605 24.1293 10.1418C22.992 9.92324 21.8928 10.668 21.6741 11.8054C21.4555 12.9427 22.2003 14.042 23.3377 14.2606C24.475 14.4792 25.5743 13.7344 25.7929 12.597Z" fill="#963928"/>
<path d="M23.8303 10.6848C23.8303 10.6848 22.5078 10.5066 22.5078 11.9589" stroke="#FFE4D1" stroke-linecap="round" stroke-linejoin="round"/>
<path d="M13.0111 12.605C13.2337 11.4684 12.4928 10.3666 11.3562 10.144C10.2196 9.92143 9.11778 10.6624 8.8952 11.799C8.67262 12.9355 9.41357 14.0374 10.5502 14.2599C11.6867 14.4825 12.7886 13.7416 13.0111 12.605Z" fill="#963928"/>
<path d="M11.0501 10.6847C11.0501 10.6847 9.72754 10.5066 9.72754 11.9588" stroke="#FFE4D1" stroke-linecap="round" stroke-linejoin="round"/>
<path d="M10.7303 19.2841C10.7303 19.2841 10.7632 19.3576 10.8252 19.4971C10.8833 19.6365 10.9859 19.834 11.1021 20.0838C11.2221 20.3336 11.3828 20.6259 11.561 20.9532C11.7469 21.2785 11.9715 21.629 12.2271 21.9872C12.7402 22.7017 13.416 23.4259 14.2428 23.9119C14.3435 23.9758 14.4577 24.0223 14.5604 24.0843C14.6688 24.1385 14.7811 24.1849 14.8896 24.2372C15.0038 24.2779 15.118 24.3205 15.2342 24.3611C15.3523 24.3941 15.4685 24.4347 15.5886 24.4676C16.0727 24.5838 16.5858 24.6593 17.1241 24.6516C17.7185 24.6574 18.16 24.6051 18.6615 24.4948C18.7855 24.4735 18.8997 24.4289 19.0159 24.396C19.136 24.3689 19.2444 24.3185 19.3586 24.2779C19.5832 24.1908 19.7924 24.0804 20.0015 23.97C20.8186 23.4956 21.4751 22.7637 21.963 22.0375C22.207 21.6735 22.42 21.3172 22.5923 20.9861C22.7588 20.6531 22.9079 20.3549 23.0164 20.1012C23.1229 19.8475 23.2158 19.6442 23.2681 19.5029C23.3243 19.3615 23.3533 19.286 23.3533 19.286L23.4888 19.2937C23.4888 19.2937 23.4772 19.6171 23.3862 20.169C23.2894 20.717 23.1229 21.507 22.724 22.3861C22.5246 22.8237 22.269 23.2845 21.9378 23.728C21.6048 24.1714 21.1943 24.5993 20.7005 24.9517C20.2048 25.3041 19.6317 25.581 19.0178 25.7553C18.4059 25.9315 17.7495 26.0051 17.1125 26.0051C16.4677 26.0032 15.8209 25.9063 15.211 25.7224C14.601 25.5384 14.0318 25.2519 13.5419 24.8936C13.05 24.5374 12.6356 24.1152 12.2968 23.6796C11.956 23.2419 11.6907 22.7908 11.4777 22.359C11.0537 21.4934 10.8561 20.7111 10.7361 20.167C10.6219 19.619 10.5967 19.2976 10.5967 19.2976L10.7322 19.2841H10.7303Z" fill="#963928"/>
</g>
<defs>
<clipPath id="clip0_4348_728">
<rect width="32.1317" height="32" fill="white" transform="translate(0.93457)"/>
</clipPath>
</defs>
</svg>
