<svg width="34" height="32" viewBox="0 0 34 32" fill="none" xmlns="http://www.w3.org/2000/svg">
<g clip-path="url(#clip0_4348_354)">
<path d="M26.4437 18.3333C28.1013 18.3333 29.445 17.8201 29.445 17.187C29.445 16.5539 28.1013 16.0406 26.4437 16.0406C24.7861 16.0406 23.4424 16.5539 23.4424 17.187C23.4424 17.8201 24.7861 18.3333 26.4437 18.3333Z" fill="#EF593E"/>
<path d="M7.66149 18.3333C9.31908 18.3333 10.6628 17.8201 10.6628 17.187C10.6628 16.5539 9.31908 16.0406 7.66149 16.0406C6.0039 16.0406 4.66016 16.5539 4.66016 17.187C4.66016 17.8201 6.0039 18.3333 7.66149 18.3333Z" fill="#EF593E"/>
<path d="M28.3784 27.3122C34.6261 21.0646 34.6261 10.9352 28.3784 4.68754C22.1308 -1.56009 12.0014 -1.56009 5.75374 4.68754C-0.493888 10.9352 -0.493888 21.0646 5.75374 27.3122C12.0014 33.5598 22.1308 33.5599 28.3784 27.3122Z" fill="#FED428"/>
<path opacity="0.6" d="M12.9437 0.507338C13.7395 0.302086 14.5392 0.160733 15.3331 0.0794067C8.18025 3.12721 4.1333 11.0236 6.1316 18.7825C8.13184 26.5415 15.4919 31.4985 23.2256 30.7085C22.4918 31.0222 21.725 31.2836 20.9272 31.4888C12.3724 33.6943 3.64921 28.5456 1.44371 19.9889C-0.76178 11.4322 4.38889 2.71283 12.9437 0.507338Z" fill="#FFB71D"/>
<path d="M18.9717 1.77759C18.9717 1.77759 30.5413 1.77759 31.8329 15.5256C29.6061 10.1039 27.6852 5.2146 18.9717 1.77759Z" fill="#FAE64B"/>
<path d="M26.4437 17.946C28.1013 17.946 29.445 17.4328 29.445 16.7997C29.445 16.1666 28.1013 15.6534 26.4437 15.6534C24.7861 15.6534 23.4424 16.1666 23.4424 16.7997C23.4424 17.4328 24.7861 17.946 26.4437 17.946Z" fill="#EF593E"/>
<path d="M7.66149 17.946C9.31908 17.946 10.6628 17.4328 10.6628 16.7997C10.6628 16.1666 9.31908 15.6534 7.66149 15.6534C6.0039 15.6534 4.66016 16.1666 4.66016 16.7997C4.66016 17.4328 6.0039 17.946 7.66149 17.946Z" fill="#EF593E"/>
<path d="M21.3127 20.6569H12.7289C12.0667 20.6569 10.8564 20.6356 10.8564 21.7219C10.8564 23.0328 12.6921 27.1553 16.9888 27.2366C21.4424 27.1553 23.1522 23.0309 23.1522 21.7219C23.1522 20.4129 21.9749 20.6569 21.3127 20.6569Z" fill="#963928"/>
<path d="M13.0172 22.206H21.1498C21.9592 22.206 22.6311 21.6212 22.7686 20.8505C22.3659 20.5795 21.7346 20.6569 21.3106 20.6569H12.7268C12.353 20.6569 11.8031 20.6511 11.3965 20.8409C11.5301 21.6154 12.2039 22.206 13.0172 22.206Z" fill="white"/>
<path d="M15.535 23.9487C14.5377 23.9487 13.6064 24.2236 12.8086 24.7C13.8019 25.7553 15.2406 26.6189 17.1809 26.6557C18.1839 26.6363 19.0456 26.4117 19.7833 26.0632C18.8113 24.7794 17.2699 23.9487 15.535 23.9487Z" fill="#FA5454"/>
<path d="M8.10293 10.0651C8.51731 10.1542 8.92975 10.2471 9.34026 10.342L10.5718 10.6364L11.7975 10.9462C12.206 11.0507 12.6127 11.1611 13.0174 11.2734C13.2904 11.3489 13.4511 11.6316 13.3756 11.9066C13.3427 12.0266 13.2691 12.1254 13.1723 12.1912L13.0174 12.2977C12.6591 12.5456 12.2758 12.7218 11.8846 12.8767C11.4935 13.0297 11.0907 13.1536 10.6821 13.2543C10.2716 13.355 9.85532 13.4324 9.42739 13.4808C9.21246 13.5041 8.99752 13.5215 8.77678 13.5273C8.55604 13.5292 8.33336 13.5331 8.10293 13.506C8.06227 13.5002 8.03129 13.4634 8.0371 13.4227C8.03903 13.4053 8.04678 13.3898 8.0584 13.3782C8.22299 13.2117 8.39919 13.0781 8.57346 12.9425C8.74967 12.8109 8.92975 12.6908 9.1137 12.5746C9.47967 12.3481 9.85532 12.1486 10.2387 11.9724C10.6221 11.7962 11.0462 11.6452 11.4489 11.5213C11.8517 11.3993 12.148 11.3005 12.7289 11.2715V12.2958C12.3416 12.1312 11.9214 11.9647 11.5361 11.7943L10.3665 11.2753L9.21052 10.7409C8.82906 10.5608 8.44373 10.3769 8.06421 10.1891C8.03129 10.1716 8.01386 10.131 8.03129 10.098C8.04484 10.069 8.07582 10.0554 8.10487 10.0613L8.10293 10.0651Z" fill="#963928"/>
<path d="M25.4486 10.1929C25.0691 10.3807 24.6876 10.5647 24.3062 10.7448L23.1579 11.2792L22.0116 11.7981C21.6263 11.9685 21.2468 12.137 20.8595 12.2997V11.2753C21.2468 11.3044 21.696 11.4051 22.0988 11.5251C22.4996 11.649 22.8888 11.8001 23.2722 11.9763C23.6556 12.1525 24.0293 12.3519 24.3953 12.5785C24.5773 12.6927 24.7574 12.8128 24.9336 12.9464C25.1078 13.0819 25.284 13.2156 25.4486 13.3821C25.4777 13.4111 25.4777 13.4595 25.4486 13.4886C25.437 13.5002 25.4196 13.5079 25.4041 13.5099C25.1717 13.537 24.951 13.5331 24.7302 13.5312C24.5095 13.5254 24.2946 13.5079 24.0796 13.4847C23.6517 13.4363 23.2334 13.3588 22.8249 13.2582C22.4144 13.1575 22.0136 13.0316 21.6224 12.8806C21.2313 12.7257 20.8479 12.5494 20.4897 12.3016L20.3347 12.1951C20.1004 12.0344 20.0424 11.7149 20.2031 11.4806C20.2747 11.378 20.3773 11.3083 20.4897 11.2773C20.8943 11.165 21.3029 11.0546 21.7095 10.95L22.9353 10.6402L24.1668 10.3459C24.5773 10.2491 24.9897 10.1561 25.4041 10.069C25.4409 10.0612 25.4777 10.0845 25.4854 10.1213C25.4912 10.1523 25.4757 10.1832 25.4486 10.1968V10.1929Z" fill="#963928"/>
</g>
<defs>
<clipPath id="clip0_4348_354">
<rect width="32.1317" height="32" fill="white" transform="translate(0.93457)"/>
</clipPath>
</defs>
</svg>
