<svg width="34" height="32" viewBox="0 0 34 32" fill="none" xmlns="http://www.w3.org/2000/svg">
<g clip-path="url(#clip0_4348_403)">
<path d="M28.3784 27.3122C34.6261 21.0646 34.6261 10.9352 28.3784 4.68754C22.1308 -1.56009 12.0014 -1.56009 5.75374 4.68754C-0.493888 10.9352 -0.493888 21.0646 5.75374 27.3122C12.0014 33.5598 22.1308 33.5599 28.3784 27.3122Z" fill="#FED428"/>
<path opacity="0.6" d="M12.944 0.507338C13.7398 0.302086 14.5395 0.160733 15.3334 0.0794067C8.18058 3.12721 4.13362 11.0236 6.13193 18.7825C8.13217 26.5415 15.4922 31.4985 23.226 30.7085C22.4921 31.0222 21.7253 31.2836 20.9275 31.4888C12.3728 33.6943 3.64954 28.5456 1.44404 19.9889C-0.759513 11.4341 4.38922 2.71283 12.944 0.507338Z" fill="#FFB71D"/>
<path d="M18.9717 1.77759C18.9717 1.77759 30.5413 1.77759 31.8329 15.5256C29.6061 10.1039 27.6852 5.2146 18.9717 1.77759Z" fill="#FAE64B"/>
<path d="M26.2504 19.1078C27.9079 19.1078 29.2517 18.5946 29.2517 17.9615C29.2517 17.3284 27.9079 16.8152 26.2504 16.8152C24.5928 16.8152 23.249 17.3284 23.249 17.9615C23.249 18.5946 24.5928 19.1078 26.2504 19.1078Z" fill="#EF593E"/>
<path d="M7.46813 19.1078C9.12572 19.1078 10.4695 18.5946 10.4695 17.9615C10.4695 17.3284 9.12572 16.8152 7.46813 16.8152C5.81054 16.8152 4.4668 17.3284 4.4668 17.9615C4.4668 18.5946 5.81054 19.1078 7.46813 19.1078Z" fill="#EF593E"/>
<path d="M23.5394 15.332C24.6976 15.332 25.6365 14.1183 25.6365 12.6211C25.6365 11.1239 24.6976 9.91022 23.5394 9.91022C22.3813 9.91022 21.4424 11.1239 21.4424 12.6211C21.4424 14.1183 22.3813 15.332 23.5394 15.332Z" fill="#963928"/>
<path d="M23.636 10.6615C23.636 10.6615 22.3135 10.4311 22.3135 12.3094" stroke="#FFE4D1" stroke-linecap="round" stroke-linejoin="round"/>
<path d="M10.3725 15.332C11.5306 15.332 12.4695 14.1183 12.4695 12.6211C12.4695 11.1239 11.5306 9.91022 10.3725 9.91022C9.21428 9.91022 8.27539 11.1239 8.27539 12.6211C8.27539 14.1183 9.21428 15.332 10.3725 15.332Z" fill="#963928"/>
<path d="M10.469 10.6615C10.469 10.6615 9.14648 10.4311 9.14648 12.3094" stroke="#FFE4D1" stroke-linecap="round" stroke-linejoin="round"/>
<path d="M17.0858 27.4535C18.9594 27.4535 20.4783 25.769 20.4783 23.6911C20.4783 21.6133 18.9594 19.9288 17.0858 19.9288C15.2122 19.9288 13.6934 21.6133 13.6934 23.6911C13.6934 25.769 15.2122 27.4535 17.0858 27.4535Z" fill="#963928"/>
<path d="M12.0824 8.45792C12.0824 8.45792 11.9739 8.38046 11.7822 8.26235C11.5905 8.14617 11.3136 7.98739 10.9728 7.84991C10.634 7.71049 10.2293 7.59818 9.80524 7.58269C9.38118 7.56333 8.93388 7.64659 8.51563 7.82667C8.48659 7.83829 8.45367 7.85184 8.4285 7.86346L8.36072 7.89832C8.31619 7.91962 8.26972 7.94672 8.22131 7.97577C8.12643 8.02999 8.03542 8.09195 7.94828 8.15972C7.77401 8.29333 7.61717 8.44824 7.47581 8.61476C7.19504 8.94781 6.98592 9.32153 6.82714 9.65845C6.66642 9.99538 6.55605 10.2955 6.48053 10.5085C6.40695 10.7215 6.36823 10.8493 6.36823 10.8493C6.36823 10.8493 6.33918 10.7196 6.3295 10.4872C6.31982 10.2548 6.32756 9.91986 6.40308 9.52097C6.48247 9.12402 6.63351 8.6593 6.92589 8.212C7.07112 7.98932 7.25314 7.77245 7.47001 7.58463C7.57844 7.49168 7.69462 7.40068 7.81855 7.32516C7.88051 7.28643 7.94247 7.2477 8.01412 7.21285L8.11868 7.15863C8.1516 7.14314 8.17871 7.13152 8.20969 7.11797C8.47497 7.00566 8.7538 6.92434 9.03844 6.88754C9.32309 6.84882 9.60773 6.85656 9.87494 6.89916C10.4132 6.98436 10.8644 7.21479 11.1917 7.4607C11.5228 7.70662 11.7455 7.96415 11.8829 8.15198C12.0223 8.3398 12.0766 8.46179 12.0766 8.46179L12.0824 8.45792Z" fill="#963928"/>
<path d="M21.8603 8.45795C21.8603 8.45795 21.9165 8.33596 22.054 8.14813C22.1914 7.96031 22.4141 7.70277 22.7452 7.45686C23.0744 7.21288 23.5256 6.98245 24.0639 6.89532C24.3311 6.85272 24.6177 6.84497 24.9004 6.8837C25.185 6.91855 25.4639 7.00182 25.7291 7.11412C25.7601 7.12768 25.7853 7.13736 25.8201 7.15479L25.9247 7.20901C25.9963 7.24386 26.0583 7.28259 26.1203 7.32131C26.2442 7.39877 26.3604 7.48784 26.4688 7.58078C26.6857 7.76861 26.8696 7.98548 27.0129 8.20816C27.3053 8.65545 27.4563 9.12211 27.5357 9.51713C27.6132 9.91601 27.6209 10.251 27.6093 10.4834C27.5996 10.7157 27.5706 10.8455 27.5706 10.8455C27.5706 10.8455 27.5319 10.7177 27.4583 10.5047C27.3828 10.2917 27.2743 9.98959 27.1117 9.65461C26.951 9.31962 26.7418 8.94397 26.463 8.61092C26.3217 8.44633 26.1648 8.28948 25.9905 8.15588C25.9034 8.0881 25.8124 8.02808 25.7175 7.97192C25.6691 7.94288 25.6226 7.91577 25.5781 7.89447L25.5103 7.85962C25.4852 7.848 25.4522 7.83444 25.4232 7.82283C25.0049 7.64275 24.5596 7.55948 24.1336 7.57885C23.7076 7.59627 23.3048 7.70858 22.966 7.84606C22.6252 7.98354 22.3483 8.14039 22.1566 8.2585C21.9649 8.37662 21.8564 8.45407 21.8564 8.45407L21.8603 8.45795Z" fill="#963928"/>
</g>
<defs>
<clipPath id="clip0_4348_403">
<rect width="32.1317" height="32" fill="white" transform="translate(0.93457)"/>
</clipPath>
</defs>
</svg>
