<svg width="34" height="32" viewBox="0 0 34 32" fill="none" xmlns="http://www.w3.org/2000/svg">
<g clip-path="url(#clip0_4348_171)">
<path d="M28.3784 27.3122C34.6261 21.0646 34.6261 10.9352 28.3784 4.68754C22.1308 -1.56009 12.0014 -1.56009 5.75374 4.68754C-0.493888 10.9352 -0.493888 21.0646 5.75374 27.3122C12.0014 33.5598 22.1308 33.5599 28.3784 27.3122Z" fill="#FED428"/>
<path opacity="0.6" d="M12.944 0.507338C13.7398 0.302086 14.5395 0.160733 15.3334 0.0794067C8.18058 3.12721 4.13362 11.0236 6.13193 18.7825C8.13217 26.5415 15.4922 31.4985 23.226 30.7085C22.4921 31.0222 21.7253 31.2836 20.9275 31.4888C12.3728 33.6943 3.64954 28.5456 1.44404 19.9889C-0.759513 11.4341 4.38922 2.71283 12.944 0.507338Z" fill="#FFB71D"/>
<path d="M18.9717 1.77759C18.9717 1.77759 30.5413 1.77759 31.8329 15.5256C29.6061 10.1039 27.6852 5.2146 18.9717 1.77759Z" fill="#FAE64B"/>
<path d="M25.1217 12.1815C25.8827 13.0548 25.7897 14.3812 24.9164 15.1402C24.0431 15.9012 22.7167 15.8083 21.9577 14.935C21.1967 14.0617 21.2897 12.7353 22.163 11.9763C23.0362 11.2153 24.3626 11.3082 25.1217 12.1815Z" fill="#963928"/>
<path d="M22.616 12.35C22.616 12.35 21.5007 13.0839 22.4534 14.1798" stroke="#FFE4D1" stroke-linecap="round" stroke-linejoin="round"/>
<path d="M10.8548 15.6352C12.002 15.4761 12.8029 14.417 12.6437 13.2699C12.4845 12.1227 11.4255 11.3218 10.2783 11.4809C9.13115 11.6401 8.33022 12.6991 8.4894 13.8463C8.64859 14.9935 9.70761 15.7944 10.8548 15.6352Z" fill="#963928"/>
<path d="M9.51645 12.4584C9.51645 12.4584 8.48825 13.3104 9.55711 14.296" stroke="#FFE4D1" stroke-linecap="round" stroke-linejoin="round"/>
<path d="M21.9262 21.4315H12.4343C11.4194 21.4315 10.5967 22.2542 10.5967 23.269V23.2729C10.5967 24.2878 11.4194 25.1105 12.4343 25.1105H21.9262C22.9411 25.1105 23.7638 24.2878 23.7638 23.2729V23.269C23.7638 22.2542 22.9411 21.4315 21.9262 21.4315Z" fill="#963928"/>
<path d="M13.2769 11.3625C13.2769 11.3625 13.1821 11.4264 13.002 11.5058C12.8238 11.5871 12.5605 11.6859 12.2332 11.7575C12.0706 11.7962 11.8905 11.8253 11.7008 11.8466C11.5091 11.8717 11.3077 11.8756 11.0966 11.8814C10.9921 11.8814 10.8856 11.8737 10.7771 11.8679C10.6687 11.864 10.5583 11.8562 10.4499 11.8369C10.2291 11.8098 10.0065 11.773 9.78765 11.7149C9.67921 11.6858 9.56884 11.6587 9.4604 11.6258C9.3539 11.591 9.24934 11.5484 9.14478 11.5096C8.93372 11.4399 8.74008 11.3315 8.55226 11.2347C8.3625 11.1417 8.19597 11.0178 8.03719 10.9074C7.95974 10.8494 7.88228 10.7971 7.81064 10.739C7.74287 10.677 7.67897 10.617 7.617 10.5589C7.49695 10.4408 7.38464 10.3362 7.29751 10.2297C7.21231 10.1213 7.14454 10.0225 7.08645 9.94314C6.97414 9.78242 6.91992 9.68561 6.91992 9.68561C6.91992 9.68561 7.03223 9.7224 7.20844 9.79598C7.29557 9.83277 7.40401 9.87731 7.52019 9.93152C7.6383 9.9838 7.77772 10.0303 7.92101 10.0903C7.99266 10.1213 8.06624 10.1523 8.14175 10.1852C8.21921 10.2123 8.30053 10.2413 8.3838 10.2704C8.54839 10.3285 8.71491 10.4021 8.89693 10.4524C9.07701 10.5086 9.25709 10.5763 9.44685 10.6247C9.54173 10.6518 9.63661 10.677 9.72955 10.708C9.82444 10.7351 9.92319 10.7545 10.02 10.7796C10.2117 10.8358 10.4073 10.8706 10.599 10.9171C10.7907 10.9636 10.9843 10.9888 11.1702 11.0333C11.358 11.0604 11.54 11.103 11.7143 11.1262C11.8886 11.1553 12.0551 11.1843 12.21 11.2056C12.8509 11.3025 13.2769 11.3683 13.2769 11.3683V11.3625Z" fill="#963928"/>
<path d="M20.666 11.3624C20.666 11.3624 21.092 11.2966 21.7329 11.1998C21.8878 11.1785 22.0544 11.1494 22.2286 11.1204C22.4029 11.0972 22.5849 11.0546 22.7728 11.0274C22.9586 10.9829 23.1523 10.9577 23.344 10.9113C23.5357 10.8667 23.7332 10.8319 23.9229 10.7738C24.0198 10.7486 24.1166 10.7292 24.2134 10.7021C24.3063 10.6712 24.4032 10.646 24.4961 10.6189C24.6878 10.5705 24.8659 10.5027 25.046 10.4465C25.228 10.3962 25.3946 10.3226 25.5592 10.2645C25.6424 10.2355 25.7237 10.2064 25.8012 10.1793C25.8767 10.1464 25.9522 10.1154 26.0219 10.0844C26.1652 10.0244 26.3046 9.97794 26.4228 9.92566C26.5389 9.87145 26.6454 9.82691 26.7345 9.79012C26.9107 9.71654 27.023 9.67975 27.023 9.67975C27.023 9.67975 26.9688 9.7785 26.8565 9.93728C26.8003 10.0167 26.7306 10.1154 26.6454 10.2239C26.5602 10.3304 26.446 10.4349 26.3259 10.553C26.264 10.6111 26.1981 10.6712 26.1323 10.7331C26.0626 10.7912 25.9852 10.8435 25.9058 10.9016C25.747 11.012 25.5805 11.1359 25.3907 11.2288C25.2029 11.3276 25.0092 11.4341 24.7982 11.5038C24.6936 11.5425 24.589 11.5851 24.4825 11.62C24.3741 11.6529 24.2657 11.68 24.1553 11.709C23.9365 11.7671 23.7138 11.8039 23.4931 11.831C23.3846 11.8504 23.2743 11.8562 23.1658 11.862C23.0574 11.8678 22.9509 11.8736 22.8463 11.8756C22.6353 11.8698 22.4339 11.8659 22.2422 11.8407C22.0505 11.8194 21.8724 11.7904 21.7097 11.7516C21.3825 11.68 21.1191 11.5812 20.941 11.4999C20.7609 11.4205 20.666 11.3566 20.666 11.3566V11.3624Z" fill="#963928"/>
</g>
<defs>
<clipPath id="clip0_4348_171">
<rect width="32.1317" height="32" fill="white" transform="translate(0.93457)"/>
</clipPath>
</defs>
</svg>
